<svg version="1.1" xmlns="http://www.w3.org/2000/svg" xmlns:xlink="http://www.w3.org/1999/xlink" width="427.96969" height="27.36637" viewBox="0,0,427.96969,27.36637"><g transform="translate(26,-38.42579)"><g data-paper-data="{&quot;isPaintingLayer&quot;:true}" fill-rule="nonzero" stroke-miterlimit="10" stroke-dasharray="" stroke-dashoffset="0" style="mix-blend-mode: normal"><path d="M385.20864,42.31652l3.17691,-3.19073l1.23547,5.10518c0,0 2.73567,2.09722 3.57402,3.55539c1.36784,2.4163 1.41152,4.37586 1.41152,4.37586c0,0 3.04498,0.95722 3.57447,3.46423c0.52949,2.50701 -1.36784,7.29311 -9.39792,8.93406c-8.03053,1.64095 -14.47304,-0.59257 -17.51713,-5.65216c-3.00042,-5.01401 1.76495,-11.03083 1.49977,-10.66617l-0.97072,-8.34149l5.55959,3.73772c0,0 1.89688,-0.77489 3.92701,-0.86606c0.74966,-0.04558 2.11794,0.04558 2.7798,0.09116z" data-paper-data="{&quot;index&quot;:null}" fill="#faa51f" stroke="none" stroke-width="1" stroke-linecap="butt" stroke-linejoin="miter"/><path d="M394.43051,52.39058c0,0 2.91217,0.72931 3.44165,3.23632c0.66186,2.50701 -1.50065,7.24753 -9.0895,8.66057c-1.72083,0.31907 -3.26516,0.63815 -5.69197,0.63815c-3.75052,0.04513 -7.85403,-2.37026 -7.54516,-7.42985c0.17605,-2.91724 3.75052,-2.68933 3.75052,-2.68933l3.13279,-0.82047c0,0 3.13279,0.72885 4.98599,0.31907c1.8532,-0.41024 1.8532,-1.91444 1.8532,-1.91444l3.88289,-1.18559l1.05897,0.91164z" data-paper-data="{&quot;index&quot;:null}" fill="#ffffff" stroke="none" stroke-width="1" stroke-linecap="butt" stroke-linejoin="miter"/><path d="M401.26969,52.75524c0,0 -0.79379,0.72931 -1.94145,1.13955c-0.97116,0.36466 -2.91217,0.68373 -2.91217,0.68373" data-paper-data="{&quot;index&quot;:null}" fill="none" stroke="#8e5322" stroke-width="1.4" stroke-linecap="round" stroke-linejoin="round"/><path d="M401.0045,57.86041c0,0 -0.79423,0.09116 -1.98557,-0.04604c-1.23502,-0.09071 -2.38224,-0.59257 -2.38224,-0.59257" data-paper-data="{&quot;index&quot;:null}" fill="none" stroke="#8e5322" stroke-width="1.4" stroke-linecap="round" stroke-linejoin="round"/><path d="M378.6342,44.59607l-2.29444,-1.64095" data-paper-data="{&quot;index&quot;:null}" fill="none" stroke="#8e5322" stroke-width="1.4" stroke-linecap="round" stroke-linejoin="round"/><path d="M385.20864,42.31652l3.17691,-3.19073l1.23547,5.10518c0,0 2.73567,2.09722 3.57402,3.55539c1.36784,2.4163 1.41152,4.37586 1.41152,4.37586c0,0 3.04498,0.95722 3.57447,3.46423c0.52949,2.50701 -1.36784,7.29311 -9.39792,8.93406c-8.03053,1.64095 -14.47304,-0.59257 -17.51713,-5.65216c-3.00042,-5.01401 1.76495,-11.03083 1.49977,-10.66617l-0.97072,-8.34149l5.55959,3.73772c0,0 1.89688,-0.77489 3.92701,-0.86606c0.74966,-0.04558 2.11794,0.04558 2.7798,0.09116z" data-paper-data="{&quot;index&quot;:null}" fill="none" stroke="#8e5322" stroke-width="1.4" stroke-linecap="round" stroke-linejoin="round"/><path d="M371.00079,56.85715c0,0 -1.54433,0.22791 -2.33856,0.27349c-0.79423,0.04558 -2.55918,-0.13675 -2.55918,-0.13675" data-paper-data="{&quot;index&quot;:null}" fill="none" stroke="#8e5322" stroke-width="1.4" stroke-linecap="round" stroke-linejoin="round"/><path d="M365.7505,52.61849c0,0 0.97072,0.18187 2.73567,1.0028c1.58801,0.72931 2.60286,1.5042 2.60286,1.5042" data-paper-data="{&quot;index&quot;:null}" fill="none" stroke="#8e5322" stroke-width="1.4" stroke-linecap="round" stroke-linejoin="round"/><path d="M392.22432,47.83239c1.23547,1.96002 1.27915,4.23912 0.08825,5.01401c-1.19134,0.82047 -3.17691,-0.13675 -4.41238,-2.14235c-1.23591,-1.96002 -1.27959,-4.23912 -0.08825,-5.01401c1.19134,-0.77489 3.17691,0.18233 4.41238,2.14235z" data-paper-data="{&quot;index&quot;:null}" fill="#ffffff" stroke="#8e5322" stroke-width="1.4" stroke-linecap="round" stroke-linejoin="round"/><path d="M392.18019,49.47288c0.13281,0.45582 -0.08781,0.91164 -0.52904,1.04838c-0.39711,0.1372 -0.83835,-0.13675 -0.97072,-0.63769c-0.13237,-0.45582 0.08825,-0.91164 0.52949,-1.04838c0.4408,-0.09116 0.83791,0.18187 0.97028,0.63769" data-paper-data="{&quot;index&quot;:null}" fill="#414142" stroke="none" stroke-width="1" stroke-linecap="butt" stroke-linejoin="miter"/><path d="M381.9876,49.24497c1.23547,1.96002 1.10309,4.33028 -0.30887,5.28796c-1.41196,0.95722 -3.57402,0.13675 -4.80905,-1.86931c-1.23591,-1.96002 -1.10309,-4.33028 0.30843,-5.2875c1.41196,-0.91118 3.57402,-0.09071 4.80949,1.86886z" data-paper-data="{&quot;index&quot;:null}" fill="#ffffff" stroke="#8e5322" stroke-width="1.4" stroke-linecap="round" stroke-linejoin="round"/><path d="M381.85523,51.02312c0,0.45582 -0.35299,0.8656 -0.7501,0.8656c-0.44124,0 -0.7501,-0.36466 -0.7501,-0.8656c0,-0.45582 0.35299,-0.86606 0.7501,-0.86606c0.39711,0 0.7501,0.3642 0.7501,0.86606" data-paper-data="{&quot;index&quot;:null}" fill="#414142" stroke="none" stroke-width="1" stroke-linecap="butt" stroke-linejoin="miter"/><path d="M386.84122,53.75804c0.7501,-0.09116 1.76495,-0.68373 1.89732,0.18187c0,0.36511 -0.70598,1.86931 -1.49977,1.91444c-0.88248,0.04604 -2.42681,-1.09351 -2.38268,-1.77724c0.04412,-0.68373 1.32327,-0.22791 1.98513,-0.31907z" data-paper-data="{&quot;index&quot;:null}" fill="#5f4b43" stroke="#8e5322" stroke-width="1.4" stroke-linecap="round" stroke-linejoin="round"/><path d="M386.31129,61.32418c-2.38224,0.50186 -3.48534,-0.54698 -3.48534,-0.54698" data-paper-data="{&quot;index&quot;:null}" fill="#ffffff" stroke="#8e5322" stroke-width="1.4" stroke-linecap="round" stroke-linejoin="round"/><path d="M-26,50.3c0,0 2.9,-5.2 7,-6.7c0,0 7.9,-1.8 10.5,-0.7c0,0 5.2,3.6 6.5,5.6c0,0 -7,13 -10.3,15c0,0.1 -12.4,-7.8 -13.7,-13.2z" data-paper-data="{&quot;index&quot;:null}" fill="#f07f7f" stroke="none" stroke-width="1" stroke-linecap="butt" stroke-linejoin="miter"/><path d="M-12.3,63.6l-0.9,-6.9l4.8,-5.8l5.5,-3.4c0.4,0.3 0.7,0.7 0.9,1c0,0 -6.9,13 -10.3,15.1z" data-paper-data="{&quot;index&quot;:null}" fill="#bd4f4f" stroke="none" stroke-width="1" stroke-linecap="butt" stroke-linejoin="miter"/><path d="M-15.2,47.69999l6.8,3.2c-0.2,3.2 -3.9,12.7 -3.9,12.7c-2.9,-3 -5.4,-11.7 -5.4,-11.7z" data-paper-data="{&quot;index&quot;:null}" fill="#e37676" stroke="none" stroke-width="1" stroke-linecap="butt" stroke-linejoin="miter"/><path d="M-2,48.5c-2.5,1.4 -4,1.7 -6.4,2.4c-3.6,1.1 -9.3,1 -9.3,1c-1.8,0 -8.3,-1.6 -8.3,-1.6c0,0 3,-5.1 7,-6.7c0,0 7.8,-1.8 10.5,-0.7c0,0 5.2,3.6 6.5,5.6z" data-paper-data="{&quot;index&quot;:null}" fill="#f09292" stroke="none" stroke-width="1" stroke-linecap="butt" stroke-linejoin="miter"/><path d="M-11,44.9l2.7,6.1c-3.6,1.1 -9.3,1 -9.3,1l0.4,-6.5l1.2,-2.4c1.3,-0.3 2.8,-0.4 4.2,-0.5z" data-paper-data="{&quot;index&quot;:null}" fill="#f07f7f" stroke="none" stroke-width="1" stroke-linecap="butt" stroke-linejoin="miter"/><path d="M-9.3,46.8c0.5,0 4.7,0.9 7.1,1.4c0.1,0.1 0.1,0.2 0.2,0.3c-2.5,1.4 -4,1.7 -6.4,2.4c-3.6,1.1 -9.3,1 -9.3,1c-1.8,0 -8.3,-1.6 -8.3,-1.6c0,0 0.1,-0.2 0.3,-0.5c2.9,-0.9 7.1,-2.2 7.9,-2.2c1.2,0 7.8,-0.7 8.5,-0.8z" data-paper-data="{&quot;index&quot;:null}" fill="#ed8282" stroke="none" stroke-width="1" stroke-linecap="butt" stroke-linejoin="miter"/><path d="M-19,43.59999c0,0 7.8,-1.8 10.6,-0.6c-0.7,1.8 -2.5,2 -2.5,2l-6.3,0.4c-1.2,-0.9 -1.8,-1.8 -1.8,-1.8z" data-paper-data="{&quot;index&quot;:null}" fill="#f2bfbf" stroke="none" stroke-width="1" stroke-linecap="butt" stroke-linejoin="miter"/><path d="M-2,48.4c-2.5,1.4 -4,1.7 -6.4,2.4l-2.6,-5.9l1.7,-2.2c0.3,0 0.6,0.1 0.8,0.2c0,0 5.2,3.6 6.5,5.5z" data-paper-data="{&quot;index&quot;:null}" fill="#db6e6e" stroke="none" stroke-width="1" stroke-linecap="butt" stroke-linejoin="miter"/><path d="M-2,48.5c0,0 -0.1,0.3 -0.3,0.7c-0.2,0.5 -0.5,1.1 -0.8,1.9c-0.2,0.4 -0.4,0.8 -0.6,1.2c-0.2,0.4 -0.5,0.9 -0.8,1.4c-0.5,0.9 -1.2,1.9 -1.8,2.9c-0.7,0.9 -1.4,1.9 -2,2.7c-0.7,0.8 -1.3,1.6 -1.9,2.2c-1.2,1.3 -2,2 -2,2c0,0 0.8,-0.9 1.8,-2.2c0.5,-0.7 1.1,-1.5 1.8,-2.3c0.6,-0.9 1.3,-1.8 2,-2.7c0.7,-0.9 1.3,-1.9 1.8,-2.8c0.6,-0.9 1.1,-1.8 1.5,-2.5c0.4,-0.7 0.8,-1.4 1,-1.8c0.2,-0.4 0.3,-0.7 0.3,-0.7z" data-paper-data="{&quot;index&quot;:null}" fill="#b63a3a" stroke="none" stroke-width="1" stroke-linecap="butt" stroke-linejoin="miter"/><path d="M-26,50.3c0,0 0.5,0 1.2,0.1c0.7,0.1 1.6,0.2 2.5,0.4c0.9,0.2 1.8,0.4 2.5,0.6c0.7,0.2 1.1,0.3 1.1,0.3c0,0 -0.5,0.1 -1.2,0c-0.7,-0.1 -1.6,-0.2 -2.5,-0.4c-0.9,-0.2 -1.8,-0.4 -2.5,-0.6c-0.7,-0.2 -1.1,-0.4 -1.1,-0.4z" data-paper-data="{&quot;index&quot;:null}" fill="#f2bfbf" stroke="none" stroke-width="1" stroke-linecap="butt" stroke-linejoin="miter"/><path d="M-17.5,52.89999c0,0 0.3,0.6 0.6,1.4c0.4,0.9 0.8,2 1.3,3.1c0.4,1.1 0.9,2.3 1.2,3.1c0.2,0.4 0.3,0.8 0.5,1c0.2,0.2 0.2,0.3 0.2,0.3c0,0 -0.1,-0.1 -0.3,-0.3c-0.2,-0.2 -0.4,-0.5 -0.7,-0.9c-0.5,-0.8 -1,-1.9 -1.5,-3.1c-0.5,-1.2 -0.8,-2.3 -1.1,-3.2c0,-0.8 -0.2,-1.4 -0.2,-1.4z" data-paper-data="{&quot;index&quot;:null}" fill="#f2bfbf" stroke="none" stroke-width="1" stroke-linecap="butt" stroke-linejoin="miter"/><path d="M-9.3,46.79999c0.5,0 4.7,0.9 7.1,1.4c0.1,0.1 0.1,0.2 0.2,0.3c-2.5,1.4 -4,1.7 -6.4,2.4l-1.7,-4c0.4,0 0.7,0 0.8,-0.1z" data-paper-data="{&quot;index&quot;:null}" fill="#d66060" stroke="none" stroke-width="1" stroke-linecap="butt" stroke-linejoin="miter"/><path d="M-9.97424,47.02576l1.7,4c-3.6,1.1 -9.3,1 -9.3,1l0.3,-4.3c1.6,-0.1 5.6,-0.5 7.3,-0.7z" data-paper-data="{&quot;index&quot;:null}" fill="#e67777" stroke="none" stroke-width="1" stroke-linecap="butt" stroke-linejoin="miter"/></g></g></svg>