<svg version="1.1" xmlns="http://www.w3.org/2000/svg" xmlns:xlink="http://www.w3.org/1999/xlink" width="895.54892" height="744.78333" viewBox="0,0,895.54892,744.78333"><g transform="translate(208.09966,209.50845)"><g data-paper-data="{&quot;isPaintingLayer&quot;:true}" fill-rule="nonzero" stroke-width="0" stroke-linecap="butt" stroke-linejoin="miter" stroke-miterlimit="10" stroke-dasharray="" stroke-dashoffset="0" style="mix-blend-mode: normal"><path d="M-182.64669,206.22339l-25.45297,-25.45297l390.27887,-390.27887l25.45297,25.45297z" fill="#bbf1ff" stroke="#000000"/><path d="M-18.49255,-41.02939v-0.52168h2.08672v0.52168z" fill="#66ffb8" stroke="none"/><path d="M-145.30252,220.09195l-25.45297,-25.45297l390.27887,-390.27887l25.45297,25.45297z" fill="#cff5ff" stroke="#000000"/><path d="M-129.13043,255.04453l-25.45297,-25.45297l390.27887,-390.27887l25.45297,25.45297z" fill="#bbf1ff" stroke="#000000"/><path d="M-94.39465,269.43477l-25.45297,-25.45297l390.27887,-390.27887l25.45297,25.45297z" fill="#cff5ff" stroke="#000000"/><path d="M-64.44208,288.95374l-25.45297,-25.45297l390.27887,-390.27887l25.45297,25.45297z" fill="#bbf1ff" stroke="#000000"/><path d="M-27.61959,302.82231l-25.45297,-25.45297l390.27887,-390.27887l25.45297,25.45297z" fill="#cff5ff" stroke="#000000"/><path d="M-11.4475,337.77488l-25.45297,-25.45297l390.27887,-390.27887l25.45297,25.45297z" fill="#bbf1ff" stroke="#000000"/><path d="M4.50778,373.03234l-25.45297,-25.45297l390.27887,-390.27887l25.45297,25.45297z" fill="#cff5ff" stroke="#000000"/><path d="M38.11212,388.37786l-25.45297,-25.45297l390.27887,-390.27887l25.45297,25.45297z" fill="#bbf1ff" stroke="#000000"/><path d="M86.93326,390.76946l-25.45297,-25.45297l390.27887,-390.27887l25.45297,25.45297z" fill="#cff5ff" stroke="#000000"/><path d="M113.01727,414.76675l-25.45297,-25.45297l390.27887,-390.27887l25.45297,25.45297z" fill="#bbf1ff" stroke="#000000"/><path d="M118.01727,460.45781l-25.45297,-25.45297l390.27887,-390.27887l25.45297,25.45297z" fill="#cff5ff" stroke="#000000"/><path d="M187.61754,441.89412l-25.45297,-25.45297l390.27887,-390.27887l25.45297,25.45297z" fill="#bbf1ff" stroke="#000000"/><path d="M222.35331,456.80605l-25.45297,-25.45297l390.27887,-390.27887l25.45297,25.45297z" fill="#cff5ff" stroke="#000000"/><path d="M239.56876,490.19358l-25.45297,-25.45297l390.27887,-390.27887l25.45297,25.45297z" fill="#bbf1ff" stroke="#000000"/><path d="M276.91293,504.06215l-25.45297,-25.45297l390.27887,-390.27887l25.45297,25.45297z" fill="#cff5ff" stroke="#000000"/><path d="M297.17039,535.27488l-25.45297,-25.45297l390.27887,-390.27887l25.45297,25.45297z" fill="#bbf1ff" stroke="#000000"/></g></g></svg>