<svg version="1.1" xmlns="http://www.w3.org/2000/svg" xmlns:xlink="http://www.w3.org/1999/xlink" width="108.93294" height="50.69916" viewBox="0,0,108.93294,50.69916"><g transform="translate(-169.77104,-142.18354)"><g data-paper-data="{&quot;isPaintingLayer&quot;:true}" fill-rule="nonzero" stroke-width="1.15473" stroke-linecap="butt" stroke-linejoin="miter" stroke-miterlimit="10" stroke-dasharray="" stroke-dashoffset="0" style="mix-blend-mode: normal"><g><g fill="#ffffff" stroke="#000000"><path d="M253.28033,179.16653c0.33225,-0.91567 1.5359,-2.43188 1.8518,-2.27024c0.31918,0.15916 -0.32983,1.92811 -0.69412,2.77891l-1.15768,-0.50867v0v0z"/><path d="M250.33395,178.57003c0.33317,-0.91482 1.53512,-2.43024 1.85351,-2.2686c0.31754,0.1608 -0.33147,1.92733 -0.69497,2.77976l-1.15853,-0.51116v0v0z"/><path d="M247.67888,177.84635c0.32983,-0.91396 1.53348,-2.42862 1.85102,-2.26861c0.31754,0.16164 -0.33146,1.92897 -0.69412,2.77976l-1.1569,-0.51116v0v0z"/><path d="M245.1223,174.85819c-0.26254,0.09763 -0.77207,-0.84511 -1.16017,-1.69512c0.33232,-0.32486 0.68425,-0.62271 1.05515,-0.8935c0.30113,0.98956 0.40693,2.47707 0.10502,2.58862v0v0z"/><path d="M245.03945,177.14157c0.42171,-0.74166 1.68035,-1.86572 1.92812,-1.67786c0.25025,0.18786 -0.56857,1.62208 -1.00676,2.30228l-0.92136,-0.62442v0v0z"/><path d="M253.04564,174.70315c-0.34291,-0.14445 0.03204,-1.68283 0.39875,-2.88236c0.4956,0.19689 0.98872,0.39797 1.49327,0.57106c-0.56204,1.15605 -1.54741,2.45654 -1.89202,2.31131v0v0z"/><path d="M250.15837,173.5167c-0.38148,-0.08285 -0.46028,-1.24138 -0.28549,-2.49995c0,0 1.53348,0.07134 1.89614,0.14524c-0.32002,1.28238 -1.21765,2.44417 -1.61065,2.35472v0v0z"/><path d="M247.22272,174.14687c-0.31832,0.0221 -0.58008,-1.3702 -0.71131,-2.36957c0.41019,-0.15014 0.84099,-0.26994 1.2914,-0.36266c0.07056,1.04286 -0.24123,2.71006 -0.58008,2.73223v0v0z"/><path d="M257.0709,175.21268c-0.29537,-0.0837 -0.21657,-1.17331 -0.05251,-2.24324c0.08533,0.00327 0.17316,0.00498 0.17316,0.00498c0,0 -0.04512,-0.00171 -0.17316,-0.00498c0.88611,0.00824 1.25126,-0.03034 1.59587,-0.0886c-0.44061,1.16265 -1.20528,2.4262 -1.54336,2.33184v0v0z"/><path d="M268.96379,175.75666c-0.29046,-0.20676 0.18133,-1.36857 0.74827,-2.48852l1.5064,0.84426c-0.87957,0.99191 -1.95113,1.85593 -2.25467,1.64426v0v0z"/><path d="M265.25437,174.51607c-0.36266,-0.15838 -0.00575,-1.66557 0.40366,-2.9898c0.65639,0.03851 1.21843,0.25267 1.77308,0.48324c-0.69,1.29801 -1.79439,2.67638 -2.17673,2.50656v0v0z"/><path d="M261.59091,174.52758c-0.34702,-0.03695 -0.45453,-1.22909 -0.46107,-2.49918c0.59159,-0.14119 1.17899,-0.32081 1.78373,-0.49972c-0.25516,1.45639 -0.91318,3.04316 -1.32266,2.9989v0v0z"/><path d="M271.95608,177.57564c-0.30034,-0.21579 0.21579,-1.44978 0.80653,-2.60419c0.11731,0.0648 0.23384,0.13209 0.23384,0.13209c0,0 -0.0599,-0.03695 -0.23384,-0.13209c0.91809,0.54726 1.18724,0.74991 1.45305,0.95504c-0.88036,0.99362 -1.95682,1.86083 -2.25958,1.64916v0v0z"/></g><path d="M239.62673,175.83049v0v0c-0.20513,0.40856 -0.49723,1.00995 -0.03609,1.34803c1.23236,0.90416 11.06746,2.4598 13.30572,2.9726c-4.94505,4.47653 -13.00624,7.98736 -18.78901,5.41841c-3.66011,-1.74024 -14.08348,-5.54148 -14.08348,-5.54148l-3.83086,-1.40956c-6.61794,-2.38925 -15.36592,-3.94327 -22.62384,-3.9449c-0.40038,0 -3.66097,-0.09763 -3.58793,0.15177c1.44481,4.91549 -0.16001,12.84459 -4.0335,14.79821c-1.36203,0.68673 -3.68968,1.75169 -5.31176,1.32011c-0.66542,-0.17642 -1.24223,-0.60225 -1.55479,-1.11505c-0.28884,-0.47336 -0.60389,-1.82474 -0.69413,-2.38016c-0.86316,-5.32 4.27466,-11.59667 6.71394,-14.0893c-7.15866,-0.78436 -15.71871,-7.99802 -12.59682,-14.81292c7.75188,-0.45204 13.25812,4.45358 15.17642,10.09517c0.19611,0.57845 0.13372,1.26518 0.57845,1.76078c1.44893,-0.71302 17.46549,-8.79389 18.39267,-9.59715c0.15752,-0.13699 -10.9969,-11.06086 -9.35919,-14.58483c2.34242,-5.04104 20.26167,7.76005 23.16208,5.7228c0.03368,-0.02373 0.05663,-0.05002 0.07219,-0.07794c12.4442,-6.83295 32.9915,-7.47123 40.36346,-3.74957c8.66834,4.37648 16.64916,15.47833 14.88844,27.71172c-6.09868,-4.33136 -7.38027,-7.73469 -15.72943,-4.35431c-3.53627,1.43009 -6.26274,-1.46371 -9.60205,-1.73776c-3.90056,-0.31839 -8.96456,2.4294 -10.82048,6.09534z" fill="#2f8eff" stroke="none"/><path d="M271.10933,153.55779v0v0c9.95732,10.59808 7.9455,24.23691 5.98868,24.33781c-1.61064,0.08292 -8.37467,-6.59912 -13.99167,-5.67442c-0.1706,0.02793 -0.33225,0.0599 -0.49553,0.09024c-0.27733,0.05251 -0.54811,0.10835 -0.80738,0.16655c-3.2532,0.73107 -5.22152,1.77229 -8.84803,-0.15419c-3.12764,-1.65989 -9.28374,-0.35612 -10.63752,3.40823c3.91371,2.23911 8.88171,1.95519 12.96936,4.00146c0.17146,0.34951 -0.04682,0.79509 -0.26752,1.06907c-0.16982,0.21174 -0.35605,0.40699 -0.53575,0.60964c-5.24617,5.93867 -14.32882,8.3098 -21.18721,5.22479c0,0 -9.94502,-3.98504 -13.75123,-5.41592c-0.41517,-0.15589 -0.75978,-0.28308 -1.00754,-0.36927l0.00078,-0.00078c-1.06581,-0.27242 -2.29155,-0.80163 -2.52539,-0.88206c-0.65803,-0.22311 -1.31769,-0.42746 -1.97735,-0.63422c-3.35906,-1.05757 -6.75095,-1.90346 -10.21667,-2.47786c-2.87491,-0.47748 -5.79827,-0.77697 -8.79716,-0.8557c-1.03874,-0.02629 -2.08649,-0.02792 -3.14406,-0.00249c0.00903,0.03361 0.01393,0.06807 0.02295,0.10253c1.3891,5.4636 -0.13372,12.02825 -5.99111,15.03695c-0.58662,0.30113 -1.20116,0.57923 -1.87645,0.80405c-1.41042,0.47095 -3.37875,1.42271 -4.87777,0.64574c-1.02885,-0.53333 -1.75745,-1.51955 -2.23905,-2.65996c-0.75977,-1.79687 -0.90337,-3.97688 -0.61539,-5.3799c0.65724,-3.19827 3.74304,-8.65277 6.87807,-10.72697c0.01976,-0.01393 0.04022,-0.03034 0.0599,-0.04349c-2.38101,-0.34788 -4.25988,-0.96569 -6.75742,-2.20294c-0.47343,-0.23469 -0.88533,-0.48161 -1.26355,-0.73925c-1.29147,-0.88206 -2.11932,-1.9117 -3.07272,-3.19251c-2.02326,-2.71823 -2.45242,-5.07877 -2.36381,-8.21871c0.00824,-0.27242 0.05663,-1.83049 0.12313,-1.99462c0.28549,-0.70393 1.38739,-0.84504 2.39657,-0.83602c0.50214,0.00405 0.98296,0.04263 1.32508,0.07297c0.35037,0.03119 0.69902,0.08207 1.0469,0.13379c6.98479,1.03788 13.40911,6.18721 14.45438,11.89773c0,0 9.54137,-5.08858 14.30915,-7.60012c-1.01245,-1.57533 -5.7417,-8.44352 -6.82961,-10.50621c-0.83282,-1.57774 -1.78046,-3.77501 -0.83282,-5.46438c0.0837,-0.1485 0.17643,-0.29537 0.29047,-0.43485c3.67489,-4.50033 19.19017,4.09504 23.78564,6.37345c11.77224,-7.29728 32.93729,-8.60595 41.07322,-4.77104c4.319,2.03562 7.63777,4.5512 10.18541,7.26289zM234.10735,185.56953v0v0c5.78277,2.56895 13.84395,-0.94274 18.78979,-5.41763c-2.23826,-0.5128 -12.0733,-2.06837 -13.30566,-2.97253c-0.46114,-0.33892 -0.16988,-0.94033 0.03525,-1.34888c1.85592,-3.66594 6.91992,-6.41452 10.82048,-6.09534c3.33931,0.27406 6.065,3.16786 9.60205,1.73776c8.34916,-3.38038 9.63075,0.0238 15.72943,4.35431c1.75986,-12.23338 -6.22089,-23.33524 -14.88844,-27.71171c-7.37282,-3.72087 -27.91926,-3.08338 -40.36346,3.74957c-0.01556,0.02793 -0.03851,0.05421 -0.07219,0.07794c-2.90041,2.03725 -20.81966,-10.76385 -23.16208,-5.7228c-1.63771,3.52398 9.51671,14.44785 9.35919,14.58483c-0.92718,0.80326 -16.94374,8.88412 -18.39267,9.59715c-0.44473,-0.4956 -0.38234,-1.18312 -0.57845,-1.76078c-1.91831,-5.64159 -7.42454,-10.54721 -15.17642,-10.09517c-3.12188,6.8149 5.43816,14.02856 12.59682,14.81292c-2.43928,2.49264 -7.5771,8.77008 -6.71394,14.0893c0.09024,0.55464 0.40529,1.9068 0.69413,2.38016c0.31257,0.5128 0.88937,0.93784 1.55479,1.11505c1.62208,0.43243 3.94973,-0.63338 5.31176,-1.32011c3.87349,-1.95362 5.47831,-9.88271 4.0335,-14.79821c-0.07305,-0.2494 3.18754,-0.15177 3.58793,-0.15177c7.25792,0.00163 16.0059,1.55565 22.62384,3.9449l3.83086,1.40956c0,0 10.42337,3.80123 14.08348,5.54148z" fill="#000000" stroke="none"/><path d="M231.8018,174.62762c-4.84898,-1.92236 -5.59562,-9.90069 -3.36062,-13.26543c0.47584,-0.71629 1.64753,-2.34903 2.31124,-2.11278c1.23321,0.43897 -0.1009,1.30866 -0.50456,1.99625c-1.78209,3.03164 -1.47606,7.49751 0.20016,10.51196c0.42831,0.76958 1.25864,1.33489 1.89777,1.93139c0.65561,0.60474 0.13707,1.20776 -0.54398,0.93861v0v0z" fill="#000000" stroke="none"/><path d="M222.94801,163.82603c-0.13209,1.16592 -0.3142,1.39401 -0.32486,2.4073c-0.03283,3.23429 1.33652,4.93105 3.64782,6.75088c0.56452,0.44473 0.4291,1.14375 -0.43236,1.05678c-1.76895,-0.1797 -2.60092,-1.7033 -3.39601,-2.8175c-1.19128,-1.91007 -1.69591,-4.93602 -1.34149,-7.18331c0.22403,-1.43095 1.99874,-1.5499 1.8469,-0.21416v0v0z" fill="#000000" stroke="none"/></g><g stroke="none"><path d="M215.93871,187.77582v0v0c-0.88448,-1.57697 7.78635,-4.62588 7.00931,-9.15654c-0.03773,-0.21906 -0.15014,-0.65554 -0.37822,-0.84838c0,-0.00163 0,-0.00327 0,-0.00491c0,0 7.40976,-3.75455 11.83377,4.02277c-1.57369,-0.51521 -2.00442,1.7509 -2.60255,2.4073c-2.65833,2.91597 -7.90451,4.99096 -12.39496,4.57828c-0.94438,-0.08945 -3.01694,-0.19526 -3.46735,-0.99852z" fill="#2f8eff"/><path d="M234.40357,181.78876v0v0c0.71956,0.23632 1.01984,1.46377 0.79502,1.99704c-0.93201,2.19314 -4.20574,3.58637 -7.29899,4.78262c-1.72376,0.66542 -3.48454,1.04364 -5.38395,1.26021c-1.97486,0.22566 -10.44965,0.14936 -10.29781,-2.25958c0.13209,-2.13736 8.40004,-3.95471 9.71936,-9.71283c0.27406,-0.23874 0.47919,-0.21579 0.63259,-0.08533c0.22808,0.19284 0.34049,0.62847 0.37822,0.84838c0.77704,4.52989 -7.89378,7.57958 -7.00931,9.15654c0.45041,0.80405 2.52298,0.90992 3.46735,0.99852c4.48967,0.41268 9.73663,-1.66231 12.39496,-4.57828c0.59813,-0.6564 1.02885,-2.92336 2.60255,-2.4073z" fill="#000000"/></g><g stroke="none"><path d="M239.09837,151.29736v0v0c-0.77292,-6.70008 9.32878,-9.70707 11.27665,-5.54645c1.40956,3.01033 -4.03678,9.8835 -7.91353,9.00883c-1.78537,-0.40202 -3.19329,-2.00279 -3.36311,-3.46237z" fill="#ffffff"/><path d="M244.63246,148.99919c0.69824,0 1.32998,0.18872 1.78785,0.49475c0.45865,0.30517 0.74173,0.72695 0.74173,1.19214c0,0.46519 -0.28308,0.88697 -0.74173,1.19214c-0.45787,0.30603 -1.08961,0.49474 -1.78785,0.49474c-0.69824,0 -1.32998,-0.18872 -1.78778,-0.49474c-0.45865,-0.30517 -0.74173,-0.72695 -0.74173,-1.19214c0,-0.46519 0.28308,-0.88697 0.74173,-1.19214c0.4578,-0.30603 1.08954,-0.49475 1.78778,-0.49475v0z" fill="#000000"/><g><path d="M250.37416,145.7509v0v0c0.10665,0.2273 0.1625,0.48324 0.19362,0.7499c-3.13418,0.06814 -7.80106,0.85328 -11.10846,1.93962c1.82395,-4.60783 9.27229,-6.20036 10.91484,-2.68953z" fill="#2f8eff"/><path d="M251.7099,146.50905v0v0c1.22255,0.05741 2.04712,0.27483 2.19477,0.69327c0.10914,0.30766 -0.27235,0.66052 -0.67934,0.70478c-0.96981,0.10339 -2.50329,-0.17067 -3.57237,-0.15753c-3.30733,0.03773 -6.50638,0.61866 -9.5413,1.5663c-1.51301,0.47179 -2.83149,1.19712 -4.31907,1.70167c-0.34788,-0.19198 -0.10743,-0.56118 0.08043,-0.76305c0.46519,-0.50455 1.37105,-0.9944 2.53939,-1.44566c3.6815,-1.42192 9.96798,-2.45568 13.29748,-2.29979z" fill="#000000"/></g><path d="M251.67629,144.45865v0v0c2.79369,4.17866 -4.19679,12.5566 -9.46755,11.62125c-2.62223,-0.46519 -4.54133,-2.88563 -4.95074,-4.93105c-1.25041,-6.21514 10.57023,-12.43681 14.41828,-6.6902zM242.46148,154.75973v0v0c3.58302,0.80817 8.49603,-4.99749 8.1063,-8.25892c-0.03197,-0.26666 -0.08697,-0.5226 -0.19362,-0.7499c-1.64255,-3.51083 -9.09089,-1.91831 -10.91484,2.68953c-0.33722,0.85328 -0.4816,1.80995 -0.36095,2.85693c0.16982,1.45959 1.57774,3.06035 3.36311,3.46237z" fill="#000000"/></g><g stroke="none"><path d="M263.53714,153.23123v0v0c-0.49809,-4.15408 5.03359,-7.12341 7.21116,-3.43949c1.06169,1.79524 -2.58287,6.12816 -5.06236,5.58581c-1.14049,-0.24776 -2.04052,-1.24138 -2.1488,-2.14632z" fill="#ffffff"/><path d="M267.05124,151.50412c0.4529,0 0.86394,0.12221 1.16094,0.32081c0.29786,0.19774 0.48167,0.47172 0.48167,0.7737c0,0.30191 -0.18382,0.57596 -0.48167,0.7737c-0.29701,0.19852 -0.70805,0.32081 -1.16094,0.32081c-0.4529,0 -0.86401,-0.12229 -1.16102,-0.32081c-0.29778,-0.19774 -0.48161,-0.4718 -0.48161,-0.7737c0,-0.30198 0.18382,-0.57596 0.48161,-0.7737c0.29701,-0.1986 0.70812,-0.32081 1.16102,-0.32081v0z" fill="#000000"/><g><path d="M271.56059,149.25023v0v0c1.19704,-0.00981 2.04052,0.15348 2.16771,0.54811c0.07794,0.2396 -0.19284,0.51279 -0.48331,0.54725c-0.69164,0.08036 -1.77961,-0.13294 -2.53605,-0.12306c-2.35564,0.03034 -4.62673,0.48075 -6.78619,1.21672c-1.07319,0.36599 -2.01103,0.93044 -3.0686,1.32181c-0.24698,-0.14928 -0.07382,-0.43563 0.05663,-0.59237c0.38234,-0.45211 1.18226,-0.89023 2.20544,-1.28323c2.42946,-0.9345 6.11253,-1.61633 8.44437,-1.63523z" fill="#000000"/><path d="M264.08518,150.5466v0v0c1.31194,-2.34001 4.5414,-3.40744 6.31277,-1.23726c-1.93628,0.15255 -4.36163,0.61369 -6.31277,1.23726z" fill="#2f8eff"/></g><path d="M272.066,148.68166v0v0c1.85266,2.95455 -2.98325,8.65114 -6.73041,8.00704c-1.86246,-0.32081 -3.2269,-1.98801 -3.51737,-3.39679c-0.88774,-4.28368 6.58354,-10.45619 10.24778,-4.61025zM265.68595,155.37754v0v0c2.48034,0.54235 6.12405,-3.79057 5.06236,-5.58581c-0.10751,-0.18048 -0.22894,-0.3331 -0.35037,-0.48238c-1.77137,-2.17019 -5.00083,-1.10276 -6.31277,1.23726c-0.43649,0.78024 -0.66705,1.69676 -0.54803,2.68462c0.10829,0.90494 1.00754,1.89855 2.1488,2.14632z" fill="#000000"/></g></g></g></svg>