<svg version="1.1" xmlns="http://www.w3.org/2000/svg" xmlns:xlink="http://www.w3.org/1999/xlink" width="93.80285" height="56.82087" viewBox="0,0,93.80285,56.82087"><g transform="translate(-193.04011,-152.1175)"><g data-paper-data="{&quot;isPaintingLayer&quot;:true}" fill-rule="nonzero" stroke-linecap="butt" stroke-linejoin="miter" stroke-miterlimit="10" stroke-dasharray="" stroke-dashoffset="0" style="mix-blend-mode: normal"><path d="M221.13783,159.3616v0v0v0v0l-1.90858,4.08722c0,0 -5.35209,-3.45903 -6.48997,-3.23369c-1.13784,0.22543 -5.72227,5.53981 -8.99974,4.29353c-3.27471,-1.247 3.25191,-8.02138 7.88837,-9.09907c4.63629,-1.07849 9.50992,3.95201 9.50992,3.95201z" fill="#74bf44" stroke="#000000" stroke-width="2.32135"/><path d="M213.1136,174.06991v0v0v0v0l-2.70652,5.14773c0,0 -4.20563,-5.70649 -5.62346,-6.01405c-1.41782,-0.30757 -5.05473,8.7017 -9.51444,6.44762c-4.45961,-2.25406 6.25999,-12.87423 9.80459,-12.91685c3.54468,-0.04343 8.03983,7.33555 8.03983,7.33555z" fill="#74bf44" stroke="#000000" stroke-width="2.32135"/><path d="M210.70812,183.4718v0v0v0v0l5.76153,2.73489l2.05216,3.5122c0,0 -10.48332,-1.25514 -12.29171,-0.32518c-1.80836,0.93005 -3.11076,14.17103 -8.1781,13.39687c-5.06739,-0.77403 0.75095,-16.43425 4.08351,-18.65282c3.33203,-2.21997 8.57261,-0.66596 8.57261,-0.66596z" fill="#74bf44" stroke="#000000" stroke-width="2.32135"/><path d="M258.57833,159.01945c0,0 5.14328,-4.85031 9.72817,-3.60601c4.58341,1.243 10.76386,8.24644 7.41998,9.3744c-3.34661,1.12714 -7.65745,-4.34722 -8.78476,-4.61339c-1.12736,-0.26608 -6.66889,2.9965 -6.66889,2.9965l-1.6945,-4.1515v0v0v0z" fill="#74bf44" stroke="#000000" stroke-width="2.32135"/><path d="M266.58827,174.84631c0,0 3.98309,-7.53819 7.51722,-7.77541c3.53237,-0.23751 14.91433,9.2592 10.62364,11.80503c-4.29059,2.5458 -8.51236,-5.94001 -9.9037,-5.52892c-1.39144,0.41111 -5.19901,6.29843 -5.19901,6.29843l-3.03814,-4.79913v0v0v0v0z" fill="#74bf44" stroke="#000000" stroke-width="2.32135"/><path d="M268.40046,184.09688c0,0 5.11247,-1.93444 8.59833,0.03502c3.48576,1.96772 10.43858,17.15876 5.44177,18.3027c-4.99685,1.14402 -7.26774,-11.96567 -9.13943,-12.76034c-1.87178,-0.79471 -12.23465,1.22644 -12.23465,1.22644l1.78882,-3.65336l5.54516,-3.15045v0v0v0v0z" fill="#74bf44" stroke="#000000" stroke-width="2.32135"/><g stroke="none" stroke-width="0.77378"><g><path d="M240.159,177.7838l-0.8813,-24.4793l1.2295,0.0271c1.2133,0.0263 2.4776,0.1361 3.7575,0.3273c2.254,0.3358 4.4925,0.9277 6.6545,1.7572c3.9656,1.5228 7.631,3.8364 10.6016,6.6909c1.9739,1.8973 3.6019,3.9904 4.8415,6.2212c1.7805,3.2058 2.6827,6.5292 2.6827,9.8789c0,0.4271 -0.0186,0.8829 -0.0588,1.3928c-0.1741,2.2478 -0.7645,4.4237 -1.7573,6.468c-0.8759,1.8045 -2.0636,3.5145 -3.5307,5.0838c-0.4596,0.5331 -1.2265,1.2666 -2.2618,2.1588c0.0031,0.1029 0.0054,0.2066 0.0054,0.3095c0,0.7869 -0.0905,1.5685 -0.27,2.3252l-0.0967,0.4063l-0.3335,0.2522c-0.438,0.3304 -0.9255,0.674 -1.4927,1.0493c-3.6654,2.432 -8.0117,4.1405 -12.5677,4.9398c-1.748,0.3072 -3.5416,0.4867 -5.3321,0.5323l-1.1901,0.031v-25.3723v0v0v0z" fill="#a6479a"/><path d="M240.4817,154.4915l0.8364,23.2923v24.1814c1.7642,-0.0456 3.489,-0.2213 5.1611,-0.5153c4.5174,-0.7923 8.6463,-2.4544 12.1267,-4.7634c0.4898,-0.325 0.9711,-0.6593 1.4346,-1.009c0.1579,-0.6631 0.2391,-1.3503 0.2391,-2.0575c0,-0.2747 -0.0162,-0.5455 -0.0402,-0.8163c0.8457,-0.7135 1.9708,-1.7054 2.6092,-2.4452c1.3634,-1.4578 2.4931,-3.0634 3.335,-4.7982c0.9099,-1.8741 1.4779,-3.9006 1.6442,-6.0502c0.0333,-0.431 0.055,-0.8643 0.055,-1.3038c0,-3.2522 -0.9247,-6.4131 -2.5365,-9.3156c-1.1939,-2.1495 -2.7662,-4.1552 -4.6303,-5.9472c-2.8405,-2.7292 -6.3504,-4.9607 -10.2139,-6.4441c-2.0536,-0.7885 -4.2047,-1.3642 -6.4084,-1.693c-1.1924,-0.178 -2.398,-0.2886 -3.612,-0.3149M240.4817,154.4915v0v0v0v0l-2.4081,-2.374v0l2.4591,0.0557c1.2621,0.0271 2.5752,0.1408 3.9037,0.3389c2.3369,0.349 4.6574,0.9618 6.8983,1.8223c4.1088,1.5777 7.9096,3.9764 10.9908,6.9377c2.0567,1.977 3.7559,4.1614 5.0512,6.4936c1.8772,3.3806 2.8282,6.8936 2.8282,10.4429c0,0.4565 -0.0201,0.9417 -0.0619,1.4826c-0.1849,2.3925 -0.8148,4.7092 -1.8702,6.8843c-0.9201,1.8965 -2.1643,3.6925 -3.6979,5.3383c-0.4542,0.5208 -1.1166,1.1653 -1.9755,1.9229c-0.0155,0.8039 -0.1161,1.6025 -0.2994,2.377l-0.1927,0.814l-0.6662,0.503c-0.4573,0.3451 -0.9642,0.7018 -1.5507,1.091c-3.7985,2.5195 -8.2957,4.2883 -13.008,5.1155c-1.8053,0.3165 -3.6561,0.5014 -5.5032,0.5494l-2.3809,0.0611v-2.3825v-24.1404l-0.8364,-23.2498l-0.0883,-2.4575z" fill="#000000"/></g><path d="M245.6931,163.4727c0.7451,0 1.4199,0.3188 1.9089,0.8334c0.489,0.5146 0.7916,1.2257 0.7916,2.0103c0,0.7846 -0.3026,1.4957 -0.7916,2.0103c-0.489,0.5145 -1.1638,0.8333 -1.9089,0.8333c-0.7452,0 -1.4199,-0.3188 -1.9089,-0.8333c-0.4891,-0.5146 -0.7916,-1.2257 -0.7916,-2.0103c0,-0.7846 0.3025,-1.4957 0.7916,-2.0103c0.489,-0.5146 1.1637,-0.8334 1.9089,-0.8334v0v0z" fill="#f4eb43"/><path d="M256.8827,174.6918c0.7452,0 1.4199,0.3188 1.9089,0.8333c0.4891,0.5146 0.7916,1.2257 0.7916,2.0103c0,0.7846 -0.3025,1.4957 -0.7916,2.0103c-0.489,0.5146 -1.1637,0.8334 -1.9089,0.8334c-0.7451,0 -1.4199,-0.3188 -1.9089,-0.8334c-0.489,-0.5146 -0.7916,-1.2257 -0.7916,-2.0103c0,-0.7846 0.3026,-1.4957 0.7916,-2.0103c0.489,-0.5145 1.1638,-0.8333 1.9089,-0.8333v0v0z" fill="#f4eb43"/><path d="M246.8615,161.4586v0v0v0v0c-2.083,0 -3.7722,-1.7789 -3.7722,-3.9718c0,-1.0369 0.3861,-1.9724 1.0044,-2.6804c2.2029,0.3281 4.3548,0.9038 6.4084,1.693c0.0774,0.3173 0.1316,0.6446 0.1316,0.9874c0,2.1929 -1.6892,3.9718 -3.7722,3.9718z" fill="#f4eb43"/><path d="M254.046,168.2346v0v0v0v0c0,-2.9706 2.5404,-5.3786 5.6734,-5.3786c0.3405,0 0.6724,0.0341 0.9966,0.0882c1.8641,1.7921 3.4364,3.7978 4.6303,5.9473c-0.342,2.6603 -2.7283,4.7216 -5.6269,4.7216c-3.1338,0 -5.6734,-2.408 -5.6734,-5.3785z" fill="#f4eb43"/><path d="M250.6329,186.8734v0v0v0v0c4.5583,0 8.2539,3.5029 8.2539,7.8237c0,0.6887 -0.1029,1.3541 -0.2793,1.9902c-3.4805,2.3089 -7.6094,3.971 -12.1267,4.7634c-2.4506,-1.3565 -4.1011,-3.8697 -4.1011,-6.7544c0,-4.32 3.6941,-7.8229 8.2532,-7.8229z" fill="#f4eb43"/><path d="M264.3311,177.8032v0v0v0v0c1.4431,0 2.716,0.6747 3.4975,1.7069c-0.1663,2.1496 -0.7343,4.1761 -1.6443,6.0502c-0.5617,0.2561 -1.1893,0.4024 -1.8532,0.4024c-2.3778,0 -4.3037,-1.8269 -4.3037,-4.0794c0,-2.254 1.9259,-4.0801 4.3037,-4.0801z" fill="#f4eb43"/><path d="M247.3938,171.2786c1.1878,0 2.2633,0.4573 3.0425,1.1955c0.7792,0.7382 1.2613,1.7581 1.2613,2.8839c0,1.1259 -0.4821,2.1457 -1.2613,2.8839c-0.7792,0.7382 -1.8547,1.1955 -3.0425,1.1955c-1.1877,0 -2.2633,-0.4573 -3.0425,-1.1955c-0.7792,-0.7382 -1.2612,-1.758 -1.2612,-2.8839c0,-1.1258 0.482,-2.1457 1.2612,-2.8839c0.7792,-0.7382 1.8548,-1.1955 3.0425,-1.1955v0v0z" fill="#f4eb43"/></g><g stroke="none" stroke-width="0.77378"><g><path d="M238.192,203.0725c-7.3354,-0.441 -14.2236,-3.1013 -19.3963,-7.4886l-0.3475,-0.2941l-0.0541,-0.4519c-0.0534,-0.4433 -0.0797,-0.8418 -0.0797,-1.2171c0,-0.1478 0.0038,-0.2995 0.0124,-0.4589c-0.2809,-0.2584 -0.5703,-0.5292 -0.8558,-0.7977l-0.0828,0.2553l-1.3317,-1.4671c-0.3088,-0.3304 -0.6028,-0.6701 -0.8875,-1.0144c-1.974,-2.3817 -3.3111,-5.028 -3.9757,-7.8678c-0.3211,-1.3704 -0.4836,-2.7369 -0.4836,-4.0624c0,-5.0852 2.059,-10.0908 5.9534,-14.4735c3.7861,-4.262 9.0215,-7.522 14.7406,-9.1809c2.5991,-0.7537 5.2385,-1.1638 7.8438,-1.2211l1.2295,-0.027l-0.8829,24.5203l-0.1795,25.3197l-1.2226,-0.0728v0v0v0z" fill="#a6479a"/><path d="M239.273,154.493c-2.5728,0.0565 -5.1116,0.4697 -7.5467,1.1754c-5.5743,1.6164 -10.5969,4.7858 -14.1958,8.8366c-3.5044,3.9439 -5.6602,8.7197 -5.6602,13.7028c0,1.3132 0.1664,2.5767 0.4527,3.7978c0.6368,2.7206 1.9283,5.2067 3.7381,7.3903l0.0008,0.0008c0.2708,0.3266 0.5494,0.6492 0.8426,0.9626c0.0117,-0.0348 0.0287,-0.0689 0.0403,-0.1037c0.2909,0.2809 0.6376,0.6136 0.9974,0.9549c0.5246,0.4983 1.0833,1.0221 1.5862,1.4756c-0.0317,0.3095 -0.0534,0.6205 -0.0534,0.9339c0,0.366 0.0287,0.7243 0.0712,1.0787c4.8315,4.0979 11.3986,6.7744 18.7155,7.2147l0.0162,-2.2533l0.1138,-16.035l0.0418,-5.8413l0.1036,-2.8754l0.2569,-7.1249l0.479,-13.2905M239.273,154.493v0v0v0v0l2.408,-2.374v0l-0.0897,2.4576l-0.4782,13.2904l-0.2569,7.125l-0.1022,2.8421l-0.041,5.808l-0.1137,16.0351l-0.0163,2.2532l-0.0178,2.4475l-2.4428,-0.147c-7.5846,-0.4566 -14.715,-3.2128 -20.0773,-7.7611l-0.6941,-0.5896l-0.1091,-0.9037c-0.0402,-0.3328 -0.0665,-0.6438 -0.0789,-0.9417l-1.9538,-2.09c-0.2778,-0.2964 -0.5548,-0.6121 -0.8674,-0.9866l-0.0023,-0.0023l-0.065,-0.0789c-2.0877,-2.5202 -3.5045,-5.3267 -4.2102,-8.3414c-0.3412,-1.457 -0.5145,-2.9133 -0.5145,-4.3278c0,-5.3746 2.1596,-10.6456 6.2459,-15.245c3.9293,-4.4229 9.3574,-7.8059 15.2845,-9.5245c2.6959,-0.7815 5.4351,-1.2071 8.1417,-1.2659l2.4591,-0.0534z" fill="#000000"/></g><path d="M236.5803,167.1985v0v0v0v0c0.8109,0 1.5661,0.2166 2.2137,0.585l-0.2569,7.1249c-0.5873,0.2856 -1.2512,0.4496 -1.9568,0.4496c-2.3779,0 -4.3038,-1.8269 -4.3038,-4.0794c0,-2.254 1.9259,-4.0801 4.3038,-4.0801z" fill="#f4eb43"/><path d="M230.6871,176.5945c0.7452,0 1.4199,0.3188 1.909,0.8334c0.489,0.5145 0.7915,1.2256 0.7915,2.0103c0,0.7846 -0.3025,1.4957 -0.7915,2.0102c-0.4891,0.5146 -1.1638,0.8334 -1.909,0.8334c-0.7451,0 -1.4199,-0.3188 -1.9089,-0.8334c-0.489,-0.5145 -0.7916,-1.2256 -0.7916,-2.0102c0,-0.7847 0.3026,-1.4958 0.7916,-2.0103c0.489,-0.5146 1.1638,-0.8334 1.9089,-0.8334v0v0z" fill="#f4eb43"/><path d="M224.876,189.4749c0.7452,0 1.4199,0.3188 1.909,0.8333c0.489,0.5146 0.7915,1.2257 0.7915,2.0103c0,0.7846 -0.3025,1.4957 -0.7915,2.0103c-0.4891,0.5146 -1.1638,0.8334 -1.909,0.8334c-0.7451,0 -1.4198,-0.3188 -1.9089,-0.8334c-0.489,-0.5146 -0.7916,-1.2257 -0.7916,-2.0103c0,-0.7846 0.3026,-1.4957 0.7916,-2.0103c0.4891,-0.5145 1.1638,-0.8333 1.9089,-0.8333v0v0z" fill="#f4eb43"/><path d="M220.669,171.2794c1.1877,0 2.2633,0.4573 3.0425,1.1955c0.7792,0.7382 1.2613,1.758 1.2613,2.8839c0,1.1258 -0.4821,2.1457 -1.2613,2.8839c-0.7792,0.7382 -1.8548,1.1955 -3.0425,1.1955c-1.1878,0 -2.2633,-0.4573 -3.0425,-1.1955c-0.7792,-0.7382 -1.2613,-1.7581 -1.2613,-2.8839c0,-1.1259 0.4821,-2.1457 1.2613,-2.8839c0.7792,-0.7382 1.8547,-1.1955 3.0425,-1.1955v0v0z" fill="#f4eb43"/><g fill="#f4eb43"><path d="M219.6994,185.8505v0v0v0v0c0.4496,2.0776 -0.2955,4.1196 -1.7557,5.3607c-0.3598,-0.3412 -0.7064,-0.6739 -0.9974,-0.9548c-0.0116,0.0348 -0.0286,0.0689 -0.0402,0.1037c-0.2933,-0.3134 -0.5718,-0.6361 -0.8427,-0.9626l-0.0007,-0.0008c-1.8099,-2.1836 -3.1013,-4.6698 -3.7382,-7.3904c0.3521,-0.1733 0.7289,-0.3095 1.129,-0.3954c2.8119,-0.6097 5.6084,1.2899 6.2459,4.2396z"/></g><g fill="#f4eb43"><path d="M224.876,168.5108v0v0v0v0c-3.1361,0 -5.8683,-1.6118 -7.3447,-4.0058c3.5989,-4.0508 8.6215,-7.2202 14.1958,-8.8366c1.0392,1.3378 1.6605,2.9845 1.6605,4.7734c0,4.457 -3.8108,8.069 -8.5116,8.069z"/></g><g fill="#f4eb43"><path d="M230.7614,191.6515v0v0v0v0c0,-4.1745 3.3435,-7.6078 7.631,-8.0256l-0.1137,16.035c-4.2318,-0.4681 -7.5173,-3.872 -7.5173,-8.0094z"/></g></g><g><path d="M229.46103,181.79277v0v0v0v0l-4.28184,2.15683c0,0 -3.60643,-2.8276 -5.0251,-7.42773c-1.41866,-4.60004 0.71332,-8.47887 3.15467,-8.99803c2.44144,-0.51927 3.39906,2.56289 3.47344,6.24898c0.07438,3.68619 2.67883,8.01996 2.67883,8.01996z" fill="#74bf44" stroke="#000000" stroke-width="2.32135"/><path d="M248.89267,179.86336c0,0 1.70138,-4.76131 1.04943,-8.39015c-0.65193,-3.62874 -0.319,-6.83905 2.17678,-6.81c2.49577,0.02894 5.34888,3.41279 4.86251,8.20199c-0.48637,4.78929 -3.46572,8.2701 -3.46572,8.2701l-4.623,-1.27194v0v0v0z" fill="#74bf44" stroke="#000000" stroke-width="2.32135"/><g stroke="none" stroke-width="0.77378"><path d="M241.88159,207.59852c-12.23215,1.21456 -22.04789,-3.82464 -22.83201,-11.7217c-0.81746,-8.23282 8.14234,-15.88666 19.97405,-17.06146c11.83172,-1.1748 22.12328,4.56672 22.94082,12.80033c0.78412,7.89707 -7.84912,14.76811 -20.08286,15.98283v0v0v0v0z" fill="#74bf44"/><path d="M239.13832,179.97038c-11.06787,1.09896 -19.6794,8.28279 -18.93382,15.79176c0.74544,7.50748 10.49453,11.78032 21.5624,10.68136c11.06797,-1.09897 19.78788,-7.20644 19.04253,-14.71313c-0.74559,-7.50898 -10.60314,-12.85896 -21.67111,-11.76M239.13832,179.97038v0v0v0v0l-0.22937,-2.31004v0c12.46859,-1.23804 23.32966,4.9703 24.21042,13.84068c0.84949,8.55543 -8.23179,15.97252 -21.1231,17.25253c-12.89041,1.27992 -23.25222,-4.20661 -24.10171,-12.76204c-0.88076,-8.87038 8.5467,-17.09321 21.01439,-18.33116z" fill="#000000"/></g><path d="M234.50662,197.72691c4.07164,1.50616 6.76909,-2.01037 10.43926,-0.57006c3.13676,1.22978 6.03062,-3.58159 8.82425,0.37112c0.99135,1.4007 -0.06129,3.48571 -1.75871,4.20716c-2.25929,0.95913 -5.09526,-0.41318 -6.92672,1.1434c-1.98856,1.68885 -2.23944,2.15391 -4.93415,1.46037c-1.57237,-0.40763 -2.71504,-1.68056 -4.40863,-1.81418c-1.6853,-0.13514 -3.33558,1.54584 -5.03929,0.73139c-4.21902,-2.01881 1.29336,-6.4588 3.80399,-5.52922v0v0v0z" fill="#231f20" stroke="none" stroke-width="0.77378"/><g stroke="none" stroke-width="0.77378"><path d="M232.39143,185.41465v0v0v0v0c2.42141,0.11803 4.26832,2.58622 4.14798,5.0157c-0.1205,2.42789 -2.20285,4.71553 -4.62363,4.59583c-2.42079,-0.11889 -4.26695,-2.60273 -4.14866,-5.0296c0.12042,-2.42868 2.20408,-4.70319 4.6243,-4.58193z" fill="#ffffff"/><path d="M231.95847,188.51822c0.49974,-0.04962 0.97392,0.12096 1.33655,0.43728c0.36184,0.31549 0.61293,0.77654 0.66568,1.30783c0.05276,0.53139 -0.10275,1.03281 -0.39549,1.41329c-0.29336,0.38135 -0.72472,0.64195 -1.22446,0.69157c-0.49964,0.04961 -0.97383,-0.12107 -1.33655,-0.43728c-0.36174,-0.3155 -0.61283,-0.77655 -0.66559,-1.30794c-0.05275,-0.53129 0.10276,-1.03271 0.3954,-1.41318c0.29345,-0.38146 0.72482,-0.64196 1.22446,-0.69157v0v0z" fill="#231f20"/><path d="M232.38042,183.30693v0v0v0v0c3.70222,0.18219 6.54789,3.42127 6.35872,7.23231c-0.18831,3.81256 -3.3418,6.75314 -7.04261,6.57091c-3.69993,-0.18241 -6.5479,-3.42137 -6.36037,-7.23375c0.18687,-3.81091 3.34344,-6.75179 7.04426,-6.56947zM236.53934,190.42955v0v0v0v0c0.12042,-2.42868 -1.72649,-4.89687 -4.14798,-5.0157c-2.41953,-0.12133 -4.5038,2.15405 -4.6243,4.58193c-0.11828,2.42696 1.72707,4.91078 4.14866,5.0296c2.42008,0.11977 4.50313,-2.16795 4.62363,-4.59583z" fill="#231f20"/></g><g stroke="none" stroke-width="0.77378"><path d="M248.46658,183.81851v0v0v0v0c2.42141,0.11803 4.26832,2.58622 4.14798,5.0157c-0.1205,2.42789 -2.20275,4.71552 -4.62363,4.59583c-2.42079,-0.11889 -4.26685,-2.60274 -4.14866,-5.0296c0.12052,-2.42869 2.20408,-4.70319 4.6243,-4.58193z" fill="#ffffff"/><path d="M248.03372,186.92207c0.49974,-0.04962 0.97382,0.12097 1.33655,0.43728c0.36174,0.3155 0.61283,0.77655 0.66558,1.30784c0.05276,0.53139 -0.10275,1.03281 -0.39539,1.41328c-0.29345,0.38136 -0.72472,0.64195 -1.22446,0.69157c-0.49974,0.04962 -0.97393,-0.12106 -1.33655,-0.43728c-0.36184,-0.31549 -0.61293,-0.77654 -0.66569,-1.30793c-0.05275,-0.53129 0.10276,-1.03271 0.3955,-1.41319c0.29335,-0.38145 0.72472,-0.64195 1.22446,-0.69157v0v0z" fill="#231f20"/><path d="M248.45557,181.71078v0v0v0v0c3.70232,0.18218 6.54798,3.42126 6.35872,7.23231c-0.18831,3.81256 -3.3418,6.75314 -7.04251,6.5709c-3.70003,-0.18241 -6.54799,-3.42136 -6.36047,-7.23374c0.18687,-3.81091 3.34354,-6.7518 7.04426,-6.56947zM252.61449,188.83341v0v0v0v0c0.12042,-2.42868 -1.72649,-4.89687 -4.14798,-5.0157c-2.41943,-0.12134 -4.5037,2.15404 -4.6243,4.58193c-0.11818,2.42695 1.72707,4.91078 4.14866,5.0296c2.42008,0.11977 4.50313,-2.16795 4.62363,-4.59583z" fill="#231f20"/></g></g></g></g></svg>