<svg version="1.1" xmlns="http://www.w3.org/2000/svg" xmlns:xlink="http://www.w3.org/1999/xlink" width="46.23405" height="31.17763" viewBox="0,0,46.23405,31.17763"><g transform="translate(-174.53476,-262.74853)"><g data-paper-data="{&quot;isPaintingLayer&quot;:true}" fill-rule="nonzero" stroke="none" stroke-width="1" stroke-linecap="butt" stroke-linejoin="miter" stroke-miterlimit="10" stroke-dasharray="" stroke-dashoffset="0" style="mix-blend-mode: normal"><g><path d="M202.91013,293.61597c-0.99168,-0.94853 1.6291,-4.38249 -2.31209,-6.89071c-0.0076,-0.47409 1.03278,-1.43849 1.03278,-1.43849c0,0 3.37526,1.24547 3.97814,4.41805c0.37706,1.98959 -1.30901,5.2402 -2.69882,3.91116zM201.65982,285.95215l-0.48376,0.56905c0.86462,0.51241 1.73648,1.29623 2.23164,2.44883c0.51794,1.20715 -0.24861,3.92428 0.23756,3.96468c1.2807,0.10704 2.76201,-4.76438 -1.98544,-6.98255z" fill="#000000"/><path d="M203.64561,292.93402c-0.48652,-0.0404 0.28037,-2.75752 -0.23757,-3.96467c-0.49516,-1.1526 -1.36702,-1.93642 -2.23164,-2.44884l0.48376,-0.56904c4.74712,2.21886 3.2658,7.09028 1.98544,6.98255z" fill="#ff0000"/></g><g><path d="M207.70697,289.11091c-1.35873,-0.18439 -1.25687,-4.50334 -5.91939,-4.21536c-0.28591,-0.37914 -0.01001,-1.77101 -0.01001,-1.77101c0,0 3.46296,-0.97649 5.81476,1.23546c1.47475,1.3874 2.02135,5.00885 0.11463,4.75091zM202.19123,283.64559l-0.05663,0.74514c1.00066,-0.09357 2.16672,0.02797 3.24439,0.66918c1.12946,0.67229 2.1063,3.3207 2.52342,3.06794c1.09907,-0.66607 -0.56628,-5.4781 -5.71117,-4.48227z" fill="#000000"/><path d="M207.90275,288.1282c-0.41711,0.25275 -1.39396,-2.39566 -2.52341,-3.06795c-1.07801,-0.64156 -2.24407,-0.76275 -3.24439,-0.66918l0.05663,-0.74515c5.14454,-0.99617 6.8099,3.81585 5.71117,4.48227z" fill="#ff0000"/></g><g><path d="M192.55025,293.61425c-1.3905,1.32939 -3.07693,-1.92122 -2.69917,-3.91081c0.60219,-3.17188 3.9778,-4.41735 3.9778,-4.41735c0,0 1.04106,0.96371 1.03347,1.43849c-3.94154,2.50753 -1.32075,5.94218 -2.31209,6.88967zM194.28501,286.51982l-0.4841,-0.56939c-4.7478,2.21886 -3.26614,7.09028 -1.9851,6.98255c0.48618,-0.0404 -0.28038,-2.75683 0.23756,-3.96398c0.49446,-1.15328 1.36633,-1.93676 2.23164,-2.44918z" fill="#000000"/><path d="M193.80057,285.95043l0.4841,0.56939c-0.86497,0.51207 -1.73683,1.29555 -2.23129,2.44883c-0.51794,1.20715 0.24862,3.92358 -0.23756,3.96398c-1.28139,0.10843 -2.76305,-4.76334 1.98476,-6.9822z" fill="#ff0000"/></g><g><path d="M193.67281,284.89451c-4.66252,-0.28798 -4.561,4.03063 -5.92008,4.21536c-1.90637,0.25828 -1.35977,-3.36248 0.11498,-4.74988c2.35181,-2.21265 5.81477,-1.23616 5.81477,-1.23616c0,0 0.27554,1.39154 -0.00967,1.77067zM193.32544,284.3897l-0.05697,-0.74515c-5.14454,-0.99548 -6.80956,3.8162 -5.71014,4.48193c0.41711,0.25275 1.39361,-2.39565 2.52273,-3.0676c1.07766,-0.64156 2.24372,-0.76276 3.24439,-0.66918z" fill="#000000"/><path d="M193.26847,283.64455l0.05697,0.74515c-1.00066,-0.09357 -2.16672,0.02762 -3.24439,0.66918c-1.12912,0.67194 -2.10561,3.32035 -2.52273,3.0676c-1.09942,-0.66573 0.5656,-5.47741 5.71014,-4.48193z" fill="#ff0000"/></g><g><path d="M191.15699,278.84323c-0.02141,0.0069 -0.0435,0.01484 -0.07492,0.03004c-1.57593,0.77174 -5.24607,1.66604 -7.46631,-2.63909c-0.77174,0.05766 -1.70196,0.13467 -2.4585,-0.04592c-5.25884,-1.25446 -7.43869,-9.4117 -3.59728,-11.7673c0.78727,-0.48272 1.58801,-0.72236 2.3777,-0.16229c1.05004,0.74445 0.23653,1.65914 0.66366,2.57556c0.19233,0.41332 0.54453,0.43956 0.87912,0.66884c1.01897,0.69784 -0.10704,2.03655 0.12707,3.02997c0.24239,1.03071 1.18954,0.75896 1.62668,1.76238c0.14744,0.33804 -0.0587,0.8401 0.17921,1.01137c0.01346,0.01588 0.029,0.02659 0.0473,0.03177c0.00311,0.00138 0.00449,0.00414 0.00795,0.00553c0.00207,-0.00138 0.0031,-0.00311 0.00517,-0.00449c0.05318,0.00794 0.12017,-0.01727 0.19302,-0.06181c0.69715,-0.42644 0.92194,-1.75789 0.61635,-2.26237c-0.43576,-0.72028 0.33044,-1.30107 0.49273,-1.98199c0.19682,-0.82629 -0.80833,-1.66915 -0.41919,-2.0255c0.78348,-0.71821 3.42463,1.56418 3.77165,2.69744c0.63154,2.05934 -0.21236,4.35969 -2.02481,5.62278c-0.09357,0.06492 -0.14192,0.15159 -0.15815,0.24171c-0.04662,0.09599 -0.07665,0.20476 -0.08114,0.2973c-0.00276,0.05421 0.00173,0.11188 0.01312,0.17196c0.00621,0.03246 0.01933,0.06733 0.02935,0.10117c0.00863,0.02866 0.01381,0.05629 0.0252,0.08598c0.01899,0.04869 0.04523,0.0991 0.07147,0.14951c0.00863,0.01657 0.01416,0.03212 0.02348,0.04869c0.03763,0.06595 0.08184,0.13328 0.13191,0.20096c0.00069,0.00104 0.00138,0.00207 0.00207,0.00311c0.61428,0.82733 2.15568,1.70783 4.36073,1.35494c0.00276,-0.00069 0.00553,-0.00069 0.00829,-0.00104c0.23238,0.42195 0.4513,0.69197 0.62705,0.86082z" fill="#ff0000"/><path d="M191.83066,278.9002l-0.2752,0.22203c-1.58041,1.55659 -6.73152,2.05278 -8.2705,-1.88013c-5.41975,0.52865 -7.95248,-3.43638 -8.58023,-6.495c-0.65848,-3.20882 0.55593,-7.23876 4.35072,-7.97527c0.72616,-0.14088 1.71438,0.36877 2.11113,1.21267c0.50931,1.08388 -0.70716,2.44469 0.8988,3.12008c1.4385,0.60461 0.39744,2.33488 0.40572,2.9754c0.01485,1.1229 1.13257,1.07491 1.1968,2.16535c0.15331,-0.37948 0.28314,-0.75896 0.15642,-0.96925c-0.8477,-1.40673 0.92091,-1.88358 0.09013,-3.26096c-1.86701,-3.09591 2.46989,-2.31969 4.39215,0.64639c0.85875,1.32455 0.97269,3.7171 0.1022,5.08964c-0.45613,0.71925 -1.31902,1.62669 -1.77136,2.05347c0.50896,0.82076 1.2327,1.83558 3.7026,1.80347l0.43231,-0.14019zM191.15664,278.84392v0c-0.17541,-0.1692 -0.39433,-0.43887 -0.62671,-0.86116c-0.00276,0.00069 -0.00553,0.00069 -0.00829,0.00104c-2.2047,0.35289 -3.74542,-0.52865 -4.36073,-1.35494c-0.00104,-0.00104 -0.00138,-0.00207 -0.00207,-0.00311c-0.05041,-0.06768 -0.09427,-0.13501 -0.13191,-0.20096c-0.00932,-0.01657 -0.01485,-0.03246 -0.02348,-0.04869c-0.02659,-0.05041 -0.05248,-0.10082 -0.07147,-0.14951c-0.01139,-0.0297 -0.01657,-0.05732 -0.0252,-0.08598c-0.01002,-0.03384 -0.02313,-0.06871 -0.02935,-0.10117c-0.01139,-0.06043 -0.01588,-0.11775 -0.01312,-0.17196c0.00449,-0.09254 0.03453,-0.2013 0.08114,-0.29729c0.01657,-0.09012 0.06457,-0.17679 0.15815,-0.24171c1.81245,-1.26309 2.65635,-3.56344 2.02481,-5.62278c-0.34702,-1.13326 -2.98818,-3.41565 -3.77165,-2.69744c-0.38915,0.35635 0.61601,1.19921 0.41919,2.0255c-0.16229,0.68092 -0.92849,1.26171 -0.49273,1.98199c0.30559,0.50448 0.08079,1.83593 -0.61635,2.26237c-0.0732,0.04454 -0.14019,0.06975 -0.19302,0.06181c-0.00207,0.00138 -0.0031,0.00311 -0.00517,0.00449c-0.00346,-0.00138 -0.00484,-0.00414 -0.00795,-0.00552c-0.0183,-0.00518 -0.03384,-0.01589 -0.0473,-0.03177c-0.23791,-0.17127 -0.03212,-0.67332 -0.17921,-1.01136c-0.43714,-1.00342 -1.38429,-0.73168 -1.62668,-1.76238c-0.23411,-0.99341 0.8919,-2.33212 -0.12707,-3.02997c-0.33459,-0.22928 -0.68679,-0.25552 -0.87912,-0.66884c-0.42713,-0.91641 0.38638,-1.8311 -0.66366,-2.57556c-0.78969,-0.56007 -1.59043,-0.32008 -2.3777,0.16229c-3.84141,2.3556 -1.6619,10.51284 3.59728,11.7673c0.75654,0.18059 1.68676,0.10359 2.4585,0.04593c2.22025,4.30514 5.89039,3.41083 7.46631,2.63909c0.03142,-0.0152 0.05352,-0.02313 0.07458,-0.0297z" fill="#272525"/></g><g><path d="M214.14637,276.18929c-0.75689,0.18059 -1.68745,0.10324 -2.4585,0.04558c-2.20126,4.2675 -5.98085,3.34971 -7.58199,2.58142c0.22928,-0.25 0.46236,-0.58355 0.6281,-0.83803c2.41258,0.40469 4.0396,-0.66849 4.54131,-1.55072c0.00656,-0.01071 0.00967,-0.02106 0.01554,-0.03211c0.03038,-0.05663 0.05904,-0.11257 0.08011,-0.16678c0.01036,-0.02659 0.01451,-0.05111 0.02245,-0.07666c0.01174,-0.03729 0.0259,-0.07562 0.0328,-0.11153c0.01139,-0.06043 0.01588,-0.11809 0.01312,-0.1723c-0.00242,-0.04869 -0.01243,-0.10221 -0.02763,-0.15607c0.0328,-0.07147 0.00794,-0.1578 -0.1136,-0.2424c-0.05145,-0.07217 -0.1136,-0.125 -0.18128,-0.13777c-1.6916,-1.29623 -2.55103,-3.63699 -1.94159,-5.62554c0.34736,-1.13291 2.98818,-3.41565 3.772,-2.69744c0.3895,0.35669 -0.61566,1.19921 -0.41919,2.02585c0.16263,0.68058 0.92849,1.2617 0.49273,1.98164c-0.30559,0.50448 -0.08046,1.83593 0.61635,2.26237c0.07286,0.04454 0.13984,0.06941 0.19267,0.06181c0.00207,0.00138 0.00311,0.00311 0.00518,0.00449c0.00311,-0.00138 0.00449,-0.00414 0.0076,-0.00553c0.02003,-0.00553 0.03763,-0.01623 0.05179,-0.03487c0.23066,-0.17437 0.02797,-0.67263 0.17507,-1.00895c0.43714,-1.00342 1.38395,-0.73168 1.62634,-1.76238c0.23411,-0.99341 -0.89155,-2.33212 0.12672,-3.02997c0.33459,-0.22928 0.68679,-0.25586 0.87947,-0.66884c0.42644,-0.91676 -0.38604,-1.8311 0.66365,-2.5759c0.78969,-0.56007 1.59009,-0.31974 2.37736,0.16264c3.84175,2.3556 1.66225,10.5125 -3.59659,11.76799z" fill="#ff0000"/><path d="M220.59855,270.7471c-0.62775,3.05862 -3.16083,7.02364 -8.57988,6.49465c-1.53898,3.93291 -6.69078,3.43672 -8.27085,1.88013l-0.22064,-0.30835l0.82008,-1.55382c0,0 0.24067,0.13639 0.61669,0.34875c2.53481,0.0328 3.22989,-1.03726 3.74161,-1.86804c-0.35151,-0.29834 -1.28691,-1.16261 -1.81141,-1.98855c-0.87015,-1.3722 -0.7562,-3.7651 0.10289,-5.08965c1.92191,-2.96608 6.25847,-3.7423 4.39181,-0.64639c-0.83043,1.37738 0.93816,1.85389 0.09012,3.26096c-0.12672,0.21063 0.00346,0.58976 0.15608,0.96924c0.06422,-1.09044 1.18229,-1.0421 1.19714,-2.16535c0.00829,-0.64052 -1.03278,-2.3708 0.40607,-2.97575c1.60631,-0.6754 0.38949,-2.0362 0.89915,-3.12008c0.39605,-0.8439 1.38429,-1.35321 2.11079,-1.21233c3.79479,0.73651 5.00954,4.76645 4.35037,7.97458zM217.74296,264.42095c-0.78761,-0.48272 -1.58767,-0.7227 -2.37736,-0.16263c-1.0497,0.7448 -0.23721,1.65914 -0.66365,2.5759c-0.19268,0.41297 -0.54488,0.43956 -0.87947,0.66884c-1.01827,0.69784 0.10738,2.03655 -0.12672,3.02997c-0.24239,1.03071 -1.1892,0.75896 -1.62634,1.76238c-0.1471,0.33632 0.05559,0.83458 -0.17507,1.00895c-0.01415,0.01864 -0.03142,0.02935 -0.05179,0.03487c-0.00276,0.00138 -0.00414,0.00414 -0.0076,0.00553c-0.00207,-0.00138 -0.00311,-0.00311 -0.00518,-0.00449c-0.05318,0.00794 -0.11982,-0.01727 -0.19267,-0.06181c-0.69646,-0.42644 -0.92194,-1.75789 -0.61635,-2.26237c0.43542,-0.71994 -0.3301,-1.30107 -0.49273,-1.98165c-0.19647,-0.82664 0.80868,-1.66916 0.41919,-2.02585c-0.78382,-0.71821 -3.42463,1.56453 -3.772,2.69744c-0.60944,1.98855 0.24999,4.32931 1.94159,5.62555c0.06768,0.01278 0.12983,0.0656 0.18128,0.13777c0.1212,0.0846 0.14641,0.17093 0.1136,0.2424c0.0152,0.05387 0.02521,0.10738 0.02763,0.15607c0.00276,0.05421 -0.00173,0.11188 -0.01312,0.1723c-0.0069,0.03556 -0.02106,0.07424 -0.0328,0.11153c-0.00794,0.02589 -0.01209,0.05006 -0.02245,0.07665c-0.02072,0.05421 -0.04937,0.11014 -0.08011,0.16678c-0.00587,0.01071 -0.00898,0.02141 -0.01554,0.03212c-0.50241,0.88154 -2.12909,1.9554 -4.54131,1.55072v0c-0.16574,0.25448 -0.39882,0.58803 -0.6281,0.83803c1.60113,0.76828 5.38073,1.68607 7.58199,-2.58142c0.77104,0.05766 1.70161,0.13501 2.4585,-0.04558c5.25884,-1.25514 7.43834,-9.41205 3.59659,-11.76799z" fill="#272525"/></g><g><path d="M196.2235,273.22873l-0.54902,0.89086c-1.40155,-0.86358 -2.31313,-2.98784 -2.59454,-4.58241c-0.7151,-0.00898 -1.45922,-0.38915 -2.06141,-1.32904c-1.39706,-2.18019 1.66501,-5.15837 3.64631,-3.40323c1.76377,1.5628 0.89674,3.76648 -0.56628,4.49229c0.22755,1.36979 1.02241,3.25199 2.12494,3.93153zM193.17938,268.762l0.62222,-0.02763c0.35047,-0.09427 0.67954,-0.32423 0.92401,-0.72892c0.20269,-0.33494 0.28452,-0.6571 0.24309,-1.07318c-0.26173,-2.65877 -3.80343,-2.30933 -3.26165,0.34391c0.16574,0.81214 0.79591,1.37116 1.47234,1.4858z" fill="#000000"/><path d="M194.9687,266.93228c0.04144,0.41608 -0.0404,0.73824 -0.24309,1.07318c-0.85149,1.40915 -2.71436,0.7593 -3.01857,-0.72926c-0.54177,-2.65324 2.99992,-3.00234 3.26165,-0.34391z" fill="#ffffff"/><path d="M192.38451,265.99964c0,-0.52214 0.42327,-0.94541 0.94541,-0.94541c0.52214,0 0.94542,0.42327 0.94542,0.94541c0,0.52214 -0.42328,0.94542 -0.94542,0.94542c-0.52214,0 -0.94541,-0.42328 -0.94541,-0.94542z" fill="#000000"/></g><g><path d="M201.17848,269.53822c-0.86462,1.05833 -1.70093,2.7185 -1.54554,3.92289l-1.03796,0.13397c-0.18612,-1.44195 0.63224,-3.20709 1.55763,-4.44187c-0.04109,-0.0297 -0.08287,-0.05836 -0.12327,-0.09185c-3.01131,-2.48508 1.13256,-6.99049 3.52615,-3.52822c1.20957,1.7503 -0.57111,4.14146 -2.377,4.00507zM203.17463,267.0117c0,-0.03004 0.00035,-0.05974 -0.00104,-0.09081c-0.00276,-0.05248 -0.00829,-0.1067 -0.0145,-0.16125c-0.00276,-0.02694 -0.00449,-0.05318 -0.00863,-0.08115c-0.01243,-0.08356 -0.02796,-0.16885 -0.04937,-0.25724c-0.356,-1.47717 -2.24027,-2.06176 -3.04171,-0.6236c-0.19164,0.34184 -0.26173,0.66676 -0.20648,1.08112c0.01209,0.09012 0.02866,0.1761 0.04799,0.25897c0.00587,0.0252 0.01313,0.04903 0.01969,0.07354c0.0152,0.05663 0.03073,0.11222 0.04869,0.1654c0.00898,0.02589 0.01899,0.05111 0.02866,0.07631c0.01864,0.04972 0.03832,0.09771 0.05973,0.14433c0.01105,0.02245 0.02175,0.04489 0.0328,0.06664c0.02417,0.0473 0.04937,0.09289 0.07596,0.13674c0.01036,0.01692 0.02072,0.03419 0.03142,0.05076c0.0328,0.05007 0.06699,0.09737 0.1029,0.14261c0.00621,0.00794 0.01209,0.01657 0.01865,0.02417c0.45061,0.54936 1.13291,0.72581 1.71853,0.57285c0.00863,-0.00207 0.01761,-0.00518 0.02624,-0.0076c0.04593,-0.01312 0.09185,-0.02797 0.13674,-0.04489c0.01278,-0.00484 0.02521,-0.01002 0.03798,-0.0152c0.0404,-0.01692 0.08045,-0.03487 0.11912,-0.05524c0.01415,-0.0069 0.02763,-0.01416 0.04144,-0.02176c0.03695,-0.02037 0.07286,-0.04281 0.10808,-0.06664c0.01346,-0.00932 0.02693,-0.01796 0.04005,-0.02728c0.03556,-0.02555 0.06906,-0.05317 0.10221,-0.08183c0.01139,-0.00967 0.02313,-0.01864 0.03384,-0.02866c0.03798,-0.03453 0.07354,-0.07182 0.10773,-0.11084c0.00484,-0.00553 0.01001,-0.01001 0.01485,-0.01553c0.03902,-0.04593 0.07527,-0.09461 0.10911,-0.14606c0.00484,-0.00725 0.00863,-0.01554 0.01346,-0.02279c0.02694,-0.04351 0.05318,-0.08839 0.07631,-0.1357c0.00898,-0.01864 0.01692,-0.03868 0.02521,-0.05767c0.01692,-0.03798 0.03315,-0.07665 0.0473,-0.11705c0.00829,-0.02348 0.0152,-0.04834 0.02245,-0.07251c0.01139,-0.03902 0.02244,-0.07804 0.03142,-0.11844c0.00587,-0.02694 0.01105,-0.05421 0.01588,-0.08184c0.00725,-0.04109 0.01278,-0.08287 0.01727,-0.12603c0.00276,-0.02901 0.00587,-0.05836 0.0076,-0.08805c0.00276,-0.04489 0.00276,-0.09081 0.00241,-0.13778z" fill="#000000"/><path d="M203.17428,266.92123c0.00138,0.03107 0.00104,0.06077 0.00104,0.09081c0.00035,0.04662 -0.00001,0.09254 -0.00277,0.13743c-0.00138,0.0297 -0.00448,0.05904 -0.00759,0.08805c-0.00449,0.04281 -0.01002,0.08494 -0.01727,0.12603c-0.00484,0.02763 -0.01002,0.0549 -0.01588,0.08184c-0.00932,0.0404 -0.02003,0.07976 -0.03142,0.11844c-0.00725,0.02417 -0.01416,0.04903 -0.02245,0.07251c-0.01415,0.0404 -0.03038,0.07907 -0.0473,0.11705c-0.00829,0.01934 -0.01622,0.03902 -0.0252,0.05767c-0.02348,0.0473 -0.04937,0.09219 -0.07631,0.1357c-0.00484,0.00725 -0.00863,0.01554 -0.01347,0.02279c-0.03349,0.05145 -0.07009,0.10013 -0.10911,0.14606c-0.00484,0.00553 -0.00967,0.01001 -0.01485,0.01553c-0.03419,0.03902 -0.0701,0.07596 -0.10773,0.11084c-0.01105,0.01002 -0.02279,0.01899 -0.03384,0.02866c-0.03315,0.02866 -0.06665,0.05628 -0.10221,0.08183c-0.01312,0.00967 -0.02658,0.0183 -0.04005,0.02728c-0.03487,0.02348 -0.07113,0.04592 -0.10808,0.06664c-0.01381,0.00725 -0.02763,0.01451 -0.04144,0.02176c-0.03902,0.02003 -0.07872,0.03832 -0.11912,0.05524c-0.01278,0.00484 -0.02521,0.01036 -0.03798,0.0152c-0.04454,0.01692 -0.09047,0.03177 -0.13674,0.04489c-0.00863,0.00207 -0.01761,0.00518 -0.02624,0.0076c-0.58596,0.15331 -1.26792,-0.02348 -1.71853,-0.57285c-0.00656,-0.00794 -0.01243,-0.01623 -0.01864,-0.02417c-0.03591,-0.04523 -0.0701,-0.09253 -0.1029,-0.14261c-0.01071,-0.01623 -0.02106,-0.03349 -0.03142,-0.05076c-0.02659,-0.04351 -0.05214,-0.08909 -0.07596,-0.13674c-0.01139,-0.02176 -0.02245,-0.0442 -0.0328,-0.06664c-0.02141,-0.04662 -0.04109,-0.09461 -0.05974,-0.14433c-0.00967,-0.0252 -0.01968,-0.05007 -0.02866,-0.07631c-0.01796,-0.05318 -0.03349,-0.10877 -0.04869,-0.1654c-0.00656,-0.02452 -0.01382,-0.04799 -0.01969,-0.07354c-0.01934,-0.08287 -0.03591,-0.16885 -0.04799,-0.25897c-0.05525,-0.41436 0.01485,-0.73928 0.20649,-1.08112c0.80177,-1.43815 2.68605,-0.85357 3.0417,0.6236c0.02141,0.08839 0.03729,0.17403 0.04937,0.25724c0.0038,0.02763 0.00553,0.05387 0.00863,0.08115c0.00587,0.0549 0.01174,0.10912 0.01485,0.1616z" fill="#ffffff"/><path d="M200.55591,265.83079c0,-0.52195 0.42312,-0.94508 0.94507,-0.94508c0.52195,0 0.94507,0.42312 0.94507,0.94508c0,0.52195 -0.42312,0.94507 -0.94507,0.94507c-0.52195,0 -0.94507,-0.42312 -0.94507,-0.94507z" fill="#000000"/></g><g><path d="M197.73244,273.59613c2.69744,-0.01243 6.18526,1.00999 6.57027,2.49855c0.33286,1.28242 -0.26623,2.42846 -0.97166,3.44397c-1.20163,1.72992 -1.54692,4.10659 -2.48059,5.8341c-0.6312,1.16883 -1.91501,1.70887 -3.11801,1.66122c-1.20266,0.04868 -2.48716,-0.49239 -3.11801,-1.66122c-0.93299,-1.72785 -1.43988,-4.10521 -2.64151,-5.8341c-0.70509,-1.01516 -1.30452,-2.16155 -0.97235,-3.44397c0.38569,-1.48856 4.03408,-2.51098 6.73186,-2.49855z" fill="#ff0000"/><path d="M204.53751,279.29591c-1.49029,1.89636 -2.3083,6.7077 -2.9982,7.53537c-0.86738,1.04003 -2.32211,1.14603 -3.79065,1.14776c-1.50238,-0.00173 -2.95676,-0.10738 -3.82379,-1.14776c-0.69025,-0.82767 -1.50791,-5.63901 -2.9982,-7.53537c-1.34872,-1.7168 -1.53035,-3.94431 0,-5.00402c1.56073,-1.08077 4.17289,-1.47199 6.78781,-1.47199h0.03522c2.61492,0 5.22708,0.39087 6.78746,1.47199c1.53035,1.06006 1.34838,3.28755 0.00035,5.00402zM204.30271,276.09468c-0.38501,-1.48856 -3.87283,-2.51098 -6.57027,-2.49855c-2.69779,-0.01278 -6.34617,1.00999 -6.73186,2.49855c-0.33218,1.28242 0.26726,2.42881 0.97235,3.44397c1.20163,1.72889 1.70852,4.10625 2.64151,5.8341c0.63085,1.16883 1.91535,1.7099 3.11801,1.66122c1.203,0.04765 2.48681,-0.49239 3.11801,-1.66122c0.93367,-1.72751 1.27897,-4.10417 2.48059,-5.8341c0.70543,-1.01551 1.30453,-2.16155 0.97166,-3.44397z" fill="#272525"/></g></g></g></svg>