<svg version="1.1" xmlns="http://www.w3.org/2000/svg" xmlns:xlink="http://www.w3.org/1999/xlink" width="802.87746" height="680.55052" viewBox="0,0,802.87746,680.55052"><g transform="translate(346,275.1875)"><g data-paper-data="{&quot;isPaintingLayer&quot;:true}" fill-rule="nonzero" stroke-linecap="butt" stroke-linejoin="miter" stroke-miterlimit="10" stroke-dasharray="" stroke-dashoffset="0" style="mix-blend-mode: normal"><path d="M296.37488,355.61247c1.47393,-1.15027 2.95891,-2.34696 4.49386,-3.54708c0.59724,-0.46695 8.04421,-6.32008 8.4275,-6.48543c0.38329,-0.16535 9.75103,-1.56605 10.50052,-1.68008c6.59083,-1.00268 13.18167,-2.00536 19.7725,-3.00804c3.29542,-0.50134 6.57835,-1.09301 9.88625,-1.50402c2.0264,-0.25179 4.17695,-1.32121 6.09456,-0.61945c1.94164,0.71056 2.89007,2.95751 4.3351,4.43627c0.23348,0.26364 6.16803,6.88611 6.34729,7.39156c0.65192,1.83821 0.25933,3.89268 0.33325,5.84167c0.05506,1.45167 -0.364,2.9664 0.05358,4.35781c0.41758,1.3914 1.80193,2.32378 2.35484,3.66716c0.14395,0.34975 -0.63712,1.36042 -0.41009,1.05793c7.69606,-10.25397 19.79268,-16.50187 30.80733,-22.8572c4.01385,-2.31595 9.27648,-6.14833 13.70512,-7.44033c0.27355,-0.07981 9.91847,-0.73427 10.51153,-0.76026c1.85758,-0.08138 3.86147,-0.84813 5.57656,-0.13002c1.86845,0.78233 2.88006,2.84919 4.32009,4.27378c4.31068,4.61765 10.36708,9.4241 13.7238,14.76328c0.16225,0.25808 3.7279,9.16132 3.93876,9.68865c2.0338,5.08621 2.7117,9.69486 3.47904,15.09886c0.25966,1.82866 0.88282,3.64754 0.75119,5.48984c-0.13163,1.8423 -1.00706,3.55411 -1.52407,5.32728c-0.41911,1.43738 -2.93194,10.22263 -3.6984,10.83203c-0.3487,0.27725 -10.13019,1.18564 -11.27548,1.29776c-9.40795,0.92099 -18.81534,1.84806 -28.2244,2.7576c-14.30614,-0.19472 -28.71346,-0.93743 -43.01582,-0.6154c-4.38458,0.09872 -8.79703,0.63358 -13.18253,0.57977c-15.07029,-0.18491 -30.21742,-1.4401 -45.27114,-2.19242c-3.61794,-0.78567 -12.07775,-0.98228 -14.12362,-4.93398c-0.39798,-0.76872 -1.07641,-9.72039 -1.18796,-11.05207c-0.5694,-6.79754 -1.14131,-13.59487 -1.71036,-20.39244c-0.11249,0.06504 -0.2251,0.12926 -0.33784,0.19263c0.04594,-0.30933 0.07536,-0.6286 0.08604,-0.95786c0.44494,-1.50478 0.5412,-3.13668 0.2132,-4.78247c-0.02978,-0.14942 -0.06275,-0.2974 -0.09881,-0.44387c1.89433,-1.03482 3.38082,-2.6496 4.27174,-4.56316c0.02563,0.30389 0.05125,0.60779 0.07686,0.91168z" fill="#1d9fd9" stroke="#000000" stroke-width="3"/><path d="M-192,-272.6875c0,-1.38071 1.11929,-2.5 2.5,-2.5c1.38071,0 2.5,1.11929 2.5,2.5c0,1.38071 -1.11929,2.5 -2.5,2.5c-1.38071,0 -2.5,-1.11929 -2.5,-2.5z" fill="#1d9fd9" stroke="none" stroke-width="0.5"/><path d="M-335,-250.6875c0,-1.38071 1.11929,-2.5 2.5,-2.5c1.38071,0 2.5,1.11929 2.5,2.5c0,1.38071 -1.11929,2.5 -2.5,2.5c-1.38071,0 -2.5,-1.11929 -2.5,-2.5z" fill="#1d9fd9" stroke="none" stroke-width="0.5"/><path d="M-346,-227.6875c0,-1.38071 1.11929,-2.5 2.5,-2.5c1.38071,0 2.5,1.11929 2.5,2.5c0,1.38071 -1.11929,2.5 -2.5,2.5c-1.38071,0 -2.5,-1.11929 -2.5,-2.5z" fill="#1d9fd9" stroke="none" stroke-width="0.5"/><path d="M297.5,109.3125c-15.46398,0 -28,-12.53602 -28,-28c0,-15.46398 12.53602,-28 28,-28c15.46398,0 28,12.53602 28,28c0,15.46398 -12.53602,28 -28,28z" data-paper-data="{&quot;index&quot;:null}" fill="#fff17e" stroke="#000000" stroke-width="3"/><path d="M294.51216,199.3125v-83h4.97569v83z" data-paper-data="{&quot;index&quot;:null}" fill="#fff17e" stroke="#000000" stroke-width="0.5"/><path d="M417.5,84.30035h-83v-4.97569h83z" data-paper-data="{&quot;index&quot;:null}" fill="#fff17e" stroke="#000000" stroke-width="0.5"/><path d="M295.51216,44.3125v-83h4.97569v83z" data-paper-data="{&quot;index&quot;:null}" fill="#fff17e" stroke="#000000" stroke-width="0.5"/><path d="M258.5,84.30035h-83v-4.97569h83z" data-paper-data="{&quot;index&quot;:null}" fill="#fff17e" stroke="#000000" stroke-width="0.5"/><path d="M270.33904,56.9166l-29.44315,-29.44315l1.76506,-1.76506l29.44315,29.44315z" data-paper-data="{&quot;index&quot;:null}" fill="#fff17e" stroke="#000000" stroke-width="0.5"/><path d="M324.8959,58.15155l29.44315,-29.44315l1.76506,1.76506l-29.44315,29.44315z" data-paper-data="{&quot;index&quot;:null}" fill="#fff17e" stroke="#000000" stroke-width="0.5"/><path d="M319.66096,107.7084l29.44315,29.44315l-1.76506,1.76506l-29.44315,-29.44315z" data-paper-data="{&quot;index&quot;:null}" fill="#fff17e" stroke="#000000" stroke-width="0.5"/><path d="M272.10411,107.47346l-29.44315,29.44315l-1.76506,-1.76506l29.44315,-29.44315z" data-paper-data="{&quot;index&quot;:null}" fill="#fff17e" stroke="#000000" stroke-width="0.5"/></g></g></svg>