<svg version="1.1" xmlns="http://www.w3.org/2000/svg" xmlns:xlink="http://www.w3.org/1999/xlink" width="24" height="21.05604" viewBox="0,0,24,21.05604"><g transform="translate(-228,-169.54396)"><g data-paper-data="{&quot;isPaintingLayer&quot;:true}" fill-rule="nonzero" stroke="none" stroke-width="1" stroke-linecap="butt" stroke-linejoin="miter" stroke-miterlimit="10" stroke-dasharray="" stroke-dashoffset="0" style="mix-blend-mode: normal"><path d="M228,177.3c0,0 2.9,-5.2 7,-6.7c0,0 7.9,-1.8 10.5,-0.7c0,0 5.2,3.6 6.5,5.6c0,0 -7,13 -10.3,15c0,0.1 -12.4,-7.8 -13.7,-13.2z" fill="#f07f7f"/><path d="M241.7,190.6l-0.9,-6.9l4.8,-5.8l5.5,-3.4c0.4,0.3 0.7,0.7 0.9,1c0,0 -6.9,13 -10.3,15.1z" fill="#bd4f4f"/><path d="M238.8,174.7l6.8,3.2c-0.2,3.2 -3.9,12.7 -3.9,12.7c-2.9,-3 -5.4,-11.7 -5.4,-11.7z" fill="#e37676"/><path d="M252,175.5c-2.5,1.4 -4,1.7 -6.4,2.4c-3.6,1.1 -9.3,1 -9.3,1c-1.8,0 -8.3,-1.6 -8.3,-1.6c0,0 3,-5.1 7,-6.7c0,0 7.8,-1.8 10.5,-0.7c0,0 5.2,3.6 6.5,5.6z" fill="#f09292"/><path d="M243,171.9l2.7,6.1c-3.6,1.1 -9.3,1 -9.3,1l0.4,-6.5l1.2,-2.4c1.3,-0.3 2.8,-0.4 4.2,-0.5z" fill="#f07f7f"/><path d="M244.7,173.8c0.5,0 4.7,0.9 7.1,1.4c0.1,0.1 0.1,0.2 0.2,0.3c-2.5,1.4 -4,1.7 -6.4,2.4c-3.6,1.1 -9.3,1 -9.3,1c-1.8,0 -8.3,-1.6 -8.3,-1.6c0,0 0.1,-0.2 0.3,-0.5c2.9,-0.9 7.1,-2.2 7.9,-2.2c1.2,0 7.8,-0.7 8.5,-0.8z" fill="#ed8282"/><path d="M235,170.6c0,0 7.8,-1.8 10.6,-0.6c-0.7,1.8 -2.5,2 -2.5,2l-6.3,0.4c-1.2,-0.9 -1.8,-1.8 -1.8,-1.8z" fill="#f2bfbf"/><path d="M252,175.4c-2.5,1.4 -4,1.7 -6.4,2.4l-2.6,-5.9l1.7,-2.2c0.3,0 0.6,0.1 0.8,0.2c0,0 5.2,3.6 6.5,5.5z" fill="#db6e6e"/><path d="M252,175.5c0,0 -0.1,0.3 -0.3,0.7c-0.2,0.5 -0.5,1.1 -0.8,1.9c-0.2,0.4 -0.4,0.8 -0.6,1.2c-0.2,0.4 -0.5,0.9 -0.8,1.4c-0.5,0.9 -1.2,1.9 -1.8,2.9c-0.7,0.9 -1.4,1.9 -2,2.7c-0.7,0.8 -1.3,1.6 -1.9,2.2c-1.2,1.3 -2,2 -2,2c0,0 0.8,-0.9 1.8,-2.2c0.5,-0.7 1.1,-1.5 1.8,-2.3c0.6,-0.9 1.3,-1.8 2,-2.7c0.7,-0.9 1.3,-1.9 1.8,-2.8c0.6,-0.9 1.1,-1.8 1.5,-2.5c0.4,-0.7 0.8,-1.4 1,-1.8c0.2,-0.4 0.3,-0.7 0.3,-0.7z" fill="#b63a3a"/><path d="M228,177.3c0,0 0.5,0 1.2,0.1c0.7,0.1 1.6,0.2 2.5,0.4c0.9,0.2 1.8,0.4 2.5,0.6c0.7,0.2 1.1,0.3 1.1,0.3c0,0 -0.5,0.1 -1.2,0c-0.7,-0.1 -1.6,-0.2 -2.5,-0.4c-0.9,-0.2 -1.8,-0.4 -2.5,-0.6c-0.7,-0.2 -1.1,-0.4 -1.1,-0.4z" fill="#f2bfbf"/><path d="M236.5,179.9c0,0 0.3,0.6 0.6,1.4c0.4,0.9 0.8,2 1.3,3.1c0.4,1.1 0.9,2.3 1.2,3.1c0.2,0.4 0.3,0.8 0.5,1c0.2,0.2 0.2,0.3 0.2,0.3c0,0 -0.1,-0.1 -0.3,-0.3c-0.2,-0.2 -0.4,-0.5 -0.7,-0.9c-0.5,-0.8 -1,-1.9 -1.5,-3.1c-0.5,-1.2 -0.8,-2.3 -1.1,-3.2c0,-0.8 -0.2,-1.4 -0.2,-1.4z" fill="#f2bfbf"/><path d="M244.7,173.8c0.5,0 4.7,0.9 7.1,1.4c0.1,0.1 0.1,0.2 0.2,0.3c-2.5,1.4 -4,1.7 -6.4,2.4l-1.7,-4c0.4,0 0.7,0 0.8,-0.1z" fill="#d66060"/><path d="M244.02576,174.02576l1.7,4c-3.6,1.1 -9.3,1 -9.3,1l0.3,-4.3c1.6,-0.1 5.6,-0.5 7.3,-0.7z" fill="#e67777"/></g></g></svg>