<svg version="1.1" xmlns="http://www.w3.org/2000/svg" xmlns:xlink="http://www.w3.org/1999/xlink" width="106.44924" height="70.59514" viewBox="0,0,106.44924,70.59514"><g transform="translate(-168.99938,-125.9995)"><g data-paper-data="{&quot;isPaintingLayer&quot;:true}" fill-rule="nonzero" stroke-width="1" stroke-linecap="butt" stroke-linejoin="miter" stroke-miterlimit="10" stroke-dasharray="" stroke-dashoffset="0" style="mix-blend-mode: normal"><g><g fill="#ffffff" stroke="#000000"><path d="M234.67512,170.05623c0.73443,-0.17357 2.23056,-0.00986 2.26163,0.27967c0.03259,0.28877 -1.38699,0.61619 -2.09489,0.74201z"/><path d="M235.32162,173.90116c0.71472,-0.37138 2.30332,-0.59421 2.41094,-0.30241c0.10762,0.29104 -1.27861,1.00121 -1.97438,1.31499z"/><path d="M234.78653,171.64711c0.73443,-0.17357 2.2298,-0.01061 2.26163,0.27815c0.03183,0.29029 -1.38775,0.6177 -2.09337,0.74201z"/><path d="M234.75091,167.58466c0.83901,-0.00076 2.42459,0.55783 2.38745,0.87919c-0.03714,0.32287 -1.65984,0.31833 -2.45869,0.27361z"/><path d="M236.12578,176.34621c0.60558,-0.53509 2.09414,-1.14143 2.26618,-0.88601c0.17281,0.25618 -1.00197,1.28543 -1.60451,1.76216z"/><path d="M237.73939,178.16219c0.52524,-0.61619 1.91526,-1.4264 2.12218,-1.196c0.20615,0.22813 -0.81552,1.41276 -1.34682,1.97135z"/><path d="M234.88431,164.96604c0.92087,0.11218 2.58299,0.94133 2.50038,1.28922c-0.08034,0.34864 -1.86221,0.12127 -2.73002,-0.03562z"/><path d="M235.66648,162.29741c0.88601,0.27285 2.3829,1.38093 2.24041,1.70987c-0.14249,0.32894 -1.85311,-0.20692 -2.68228,-0.51614z"/><path d="M236.92993,159.45976c0.93527,0.44035 2.41473,1.89631 2.20782,2.23511c-0.20539,0.33879 -2.00924,-0.51993 -2.87479,-0.98909z"/><path d="M238.75879,156.85934c0.87389,0.55328 2.16614,2.18053 1.92208,2.49204c-0.24481,0.31075 -1.93345,-0.76474 -2.73533,-1.33773z"/><path d="M241.43273,181.4364c0.47067,-0.66015 1.7849,-1.59088 2.01152,-1.3779c0.2251,0.20843 -0.69122,1.48022 -1.17402,2.08125z"/><path d="M239.37271,179.90844c0.52524,-0.61543 1.91603,-1.42565 2.12293,-1.19676c0.20539,0.23041 -0.81325,1.41503 -1.34455,1.97287z"/><path d="M250.83321,186.18856c0.32591,-0.86857 1.50447,-2.28664 1.81371,-2.12218c0.30924,0.16446 -0.33045,1.83871 -0.68288,2.64514z"/><path d="M248.038,185.67242c0.32742,-0.86857 1.69774,-2.7179 2.00545,-2.55343c0.30696,0.16446 -0.52145,2.26921 -0.87615,3.0764z"/><path d="M245.59446,184.33923c0.3297,-0.86857 1.50598,-2.28741 1.81597,-2.12293c0.30771,0.16446 -0.31226,1.96452 -0.67076,2.76944z"/><path d="M243.33208,183.0917c0.41155,-0.69956 1.64241,-1.7417 1.88419,-1.55374c0.24026,0.18948 -0.56086,1.5363 -0.99136,2.17902z"/><path d="M241.38802,154.30439c0.88752,0.80718 2.03501,2.92254 1.69395,3.22646c-0.34106,0.30392 -2.04714,-1.26421 -2.84827,-2.07821z"/><path d="M260.14122,146.15675c0.24632,1.40519 -0.20009,4.22086 -0.73443,4.25269c-0.53433,0.03183 -0.9997,-2.68683 -1.16037,-4.03517z"/><path d="M255.86428,146.63955c0.31984,1.39003 0.01591,4.22616 -0.51387,4.28604c-0.53282,0.05988 -1.13688,-2.62998 -1.36956,-3.96771z"/><path d="M251.46001,147.49979c0.50629,1.33166 0.59724,4.1822 0.07807,4.31711c-0.51842,0.13491 -1.48628,-2.44429 -1.89783,-3.73655z"/><path d="M247.51731,149.21951c0.59421,1.13158 0.98454,3.66454 0.53509,3.84265c-0.44793,0.17736 -1.59012,-2.01531 -2.0964,-3.12263z"/><path d="M244.22187,151.49099c0.74427,1.03684 1.47719,3.48947 1.05805,3.72897c-0.4214,0.2395 -1.85084,-1.7705 -2.50644,-2.79521z"/><path d="M268.6951,146.26438c-0.24253,1.40594 -1.61209,3.89722 -2.12521,3.74185c-0.51387,-0.15613 -0.03411,-2.87252 0.26831,-4.19509z"/><path d="M264.43256,146.02867c0.02728,1.42717 -0.84811,4.13749 -1.38093,4.08443c-0.53282,-0.05305 -0.57374,-2.81188 -0.52372,-4.16932z"/><path d="M272.72421,147.52101c-0.42974,1.35819 -2.12975,3.63119 -2.61558,3.40533c-0.48886,-0.22662 0.36152,-2.84902 0.84205,-4.11551z"/></g><path d="M272.86972,145.80659c-4.32166,-1.4787 -12.3882,-2.04866 -17.05698,-0.90268c-9.03213,2.21843 -17.18886,6.81597 -21.43018,18.37804c-0.98833,2.68758 -0.87767,6.25511 -0.28119,9.20569c0.43959,2.17826 2.38745,5.61922 3.81158,7.31014c3.7949,4.51341 6.00955,6.48627 11.86145,8.16583c-4.08594,3.1484 -9.64453,3.62361 -14.47778,2.32757c-0.75034,-0.20236 -1.48173,-0.46763 -2.21464,-0.72457l0.00076,-0.00076c-4.9818,-2.08883 -9.88479,-5.16068 -13.53947,-7.42686c-1.09519,-0.67909 -5.18342,-2.95589 -5.18342,-2.95589c-6.46732,-2.9142 -15.01591,-4.81279 -22.10625,-4.81582c-0.39033,0 -3.57738,-0.11748 -3.50614,0.18493c1.41276,5.99969 -0.15537,15.67984 -3.93966,18.06426c-1.33091,0.83826 -3.60542,2.1434 -5.19023,1.61209c-0.64953,-0.21601 -1.21343,-0.73822 -1.51812,-1.36047c-0.28271,-0.58132 -0.59042,-2.22904 -0.67834,-2.90738c-0.84432,-6.49234 4.17689,-14.15415 6.56055,-17.19947c-6.99484,-0.95726 -15.35925,-9.76049 -12.30862,-18.07941c7.57465,-0.54949 12.95436,5.43883 14.82946,12.32301c0.19099,0.70714 0.1296,1.54388 0.56465,2.14946c1.4158,-0.8701 17.06532,-10.7329 17.97104,-11.71441c0.15462,-0.16599 -10.74427,-13.50158 -9.1443,-17.80353c2.19114,-5.88904 18.31361,8.15825 22.17825,7.19493c0.00151,0 0.00379,0.00076 0.0053,0.00076c0.0053,-0.00151 0.01061,-0.00834 0.01591,-0.00986c0.11218,-0.03032 0.21676,-0.06897 0.30696,-0.12657l0.00682,0.00607c0.01365,-0.01137 0.02653,-0.02198 0.04017,-0.03335c0.02425,-0.01819 0.05609,-0.02728 0.07883,-0.04699c0.01819,-0.01591 0.02653,-0.03486 0.03865,-0.0523c17.95815,-15.45853 36.78184,-17.46171 48.832,-7.92709c2.33667,1.84857 3.79945,3.71532 5.47294,7.16461z" fill="#2f8eff" stroke="none"/><path d="M274.52578,148.52223c-1.02623,-0.18114 -3.07867,-1.30134 -4.46794,-1.62574c-4.04198,-0.94512 -8.45081,-0.87843 -12.55267,-0.38047c-7.32756,0.8898 -14.51189,4.9962 -18.6418,11.28466c-3.59481,5.47218 -4.85296,13.3553 -1.02547,18.98588c3.66151,5.38199 8.76003,9.47323 15.42973,9.81279c1.43701,0.86933 0.15537,1.52114 -0.70638,2.15022c-4.69683,3.43262 -9.74685,4.03744 -15.32286,3.25981c-0.63816,-0.08944 -4.51417,-1.03532 -6.1437,-1.7796c-3.69941,-1.68941 -13.73047,-8.02637 -16.91146,-9.39821c-7.54888,-3.25451 -15.26374,-5.10004 -23.58191,-4.84765c1.54009,7.3594 -0.3782,16.4279 -7.6656,19.46262c-1.37714,0.57374 -3.30074,1.73715 -4.76656,0.78824c-2.59133,-1.67804 -3.24995,-7.01455 -2.78915,-9.81279c0.64574,-3.92981 3.69486,-10.65256 6.77884,-13.14914c-2.32681,-0.42444 -4.16325,-1.17932 -6.60224,-2.68758c-2.04259,-1.26269 -3.03244,-2.77929 -4.23677,-4.7999c-1.97666,-3.3159 -2.39578,-6.19751 -2.31014,-10.02955c0.00758,-0.33197 0.05533,-2.23511 0.12051,-2.43444c0.41837,-1.28771 2.63149,-1.04214 3.63649,-0.93073c7.21085,0.79051 14.07457,7.36774 15.14703,14.68545c0,0 9.32393,-6.2104 13.9821,-9.27694c-0.98909,-1.92284 -5.60936,-10.30619 -6.67273,-12.82476c-0.88449,-2.09489 -1.91071,-5.08715 -0.52979,-7.19948c3.613,-5.5275 18.93207,5.12354 23.31967,7.82477c5.48127,-5.3456 14.44064,-11.24222 21.4893,-13.67439c8.10141,-2.79521 19.77261,-2.41776 28.48869,4.02303c2.85129,2.10398 7.14264,7.76034 7.45035,11.42715c0.0523,0.60937 -0.16902,1.27937 -0.91557,1.14674zM272.86972,145.80659c-1.67349,-3.44929 -3.13627,-5.31605 -5.47294,-7.16461c-12.05016,-9.53463 -30.87386,-7.53145 -48.832,7.92709c-0.01212,0.01744 -0.02046,0.03638 -0.03865,0.0523c-0.02198,0.02046 -0.05381,0.02956 -0.07883,0.04699c-0.01365,0.01137 -0.02653,0.02198 -0.04017,0.03335l-0.00682,-0.00607c-0.09019,0.05684 -0.19478,0.09625 -0.30696,0.12657c-0.00758,0.00228 -0.01365,0.00758 -0.02123,0.00909c-3.86464,0.96331 -19.9871,-13.08472 -22.17825,-7.19493c-1.59997,4.30195 9.29892,17.63755 9.1443,17.80353c-0.90571,0.98151 -16.55524,10.84507 -17.97104,11.71441c-0.43505,-0.60558 -0.37366,-1.44233 -0.56465,-2.14946c-1.8751,-6.88495 -7.25481,-12.87327 -14.82946,-12.32301c-3.05063,8.31893 5.31377,17.1214 12.30862,18.07941c-2.38366,3.04456 -7.40488,10.70713 -6.56055,17.19947c0.08792,0.67834 0.39563,2.32606 0.67834,2.90738c0.30468,0.62225 0.86857,1.14446 1.51812,1.36047c1.58481,0.5313 3.85932,-0.77459 5.19023,-1.61209c3.78429,-2.38441 5.35243,-12.06456 3.93966,-18.06426c-0.07125,-0.30241 3.11581,-0.18493 3.50614,-0.18493c7.09034,0.00303 15.63891,1.90162 22.10625,4.81582c0,0 4.08746,2.27679 5.18342,2.95589c3.65469,2.26618 8.55767,5.33802 13.53947,7.42686l-0.00076,0.00076c0.7329,0.25694 1.4643,0.52221 2.21464,0.72457c4.83325,1.29604 10.39184,0.82083 14.47778,-2.32757c-5.85114,-1.67879 -8.06578,-3.65242 -11.86145,-8.16583c-1.42413,-1.69167 -3.37199,-5.13263 -3.81158,-7.31014c-0.59648,-2.95059 -0.70714,-6.51811 0.28119,-9.20569c4.24056,-11.56207 12.39805,-16.15961 21.43018,-18.37804c4.66879,-1.14597 12.73532,-0.57602 17.05698,0.90268z" fill="#000000" stroke="none"/><path d="M229.61298,174.31423c-4.73851,-2.34652 -5.46915,-12.08654 -3.28331,-16.19295c0.46461,-0.8754 1.61058,-2.86721 2.2586,-2.57844c1.20509,0.53433 -0.09929,1.59618 -0.49416,2.4352c-1.74018,3.70168 -1.44005,9.15264 0.19706,12.8331c0.4214,0.94133 1.23011,1.62725 1.85463,2.3541c0.63969,0.74125 0.13339,1.47946 -0.53282,1.149z" fill="#000000" stroke="none"/><path d="M220.96208,161.12946c-0.12885,1.42338 -0.30696,1.70077 -0.31757,2.9377c-0.03183,3.94801 1.3059,6.01788 3.56677,8.2401c0.55253,0.54342 0.41913,1.39608 -0.42444,1.28846c-1.72957,-0.21525 -2.54207,-2.07594 -3.31893,-3.4402c-1.16492,-2.32606 -1.65833,-6.02015 -1.3112,-8.76761c0.22055,-1.74625 1.95316,-1.8895 1.80536,-0.25845z" fill="#000000" stroke="none"/></g><g stroke="none"><path d="M220.96208,179.18462c-0.02653,-0.19327 -0.09019,-0.52827 -0.20843,-0.78824c1.41049,-0.48658 8.55464,-2.53979 10.99514,4.57405c-1.21039,-0.03335 -1.6083,2.29271 -2.13733,3.02031c-2.59739,3.55843 -7.7232,6.0914 -12.11004,5.58814c-0.92315,-0.10535 -2.94831,-0.23571 -3.38941,-1.21722c-0.86327,-1.92436 7.60952,-5.64802 6.85007,-11.17704z" fill="#2f8eff"/><path d="M232.92963,185.49127c-0.91026,2.67697 -4.11172,4.37623 -7.13203,5.8375c-1.68486,0.81401 -3.40306,1.27558 -5.25996,1.54085c-1.92891,0.27436 -10.20994,0.17811 -10.06214,-2.76034c0.13112,-2.60649 8.21054,-4.82643 9.49749,-11.85538c0.3782,-0.41003 0.62528,-0.19857 0.78066,0.14249c0.11748,0.25997 0.1819,0.59497 0.20843,0.78824c0.75943,5.52903 -7.71335,9.25268 -6.85007,11.17704c0.44111,0.98075 2.46627,1.11111 3.38941,1.21722c4.3876,0.50326 9.51265,-2.02971 12.11004,-5.58814c0.52903,-0.7276 0.92617,-3.05366 2.13733,-3.02031c0.12657,0.00303 0.2592,0.02349 0.40473,0.08337c0.70335,0.28573 0.99742,1.78415 0.77611,2.43747z" fill="#000000"/></g><g stroke="none"><path d="M238.08575,127.8151c-0.51084,0.1963 -1.40366,-0.02274 -1.94179,-0.10686c-2.1343,-0.33273 -6.17401,0.48128 -7.80354,-0.25087c-0.18418,-0.08262 -0.31454,-0.41913 -0.24708,-0.60861c0.55556,-1.54616 8.61982,-0.11899 9.81657,0.53661c0.13643,0.07428 0.2016,0.2865 0.17583,0.42974z" fill="#000000"/><path d="M229.32951,138.63365c-2.98999,-4.81582 1.01865,-11.3544 6.35516,-11.60602c2.35183,-0.11218 5.53508,1.37941 6.60224,3.61755c3.84492,8.06123 -9.35955,13.78201 -12.9574,7.98848zM240.41711,130.82404c-1.79855,-2.66181 -5.96559,-2.6656 -7.97407,-0.18266c-1.98575,2.45338 -2.74216,6.24753 -0.50023,7.99227c2.03805,1.58633 5.16598,0.54874 7.20024,-1.43247c1.8175,-1.77126 2.70881,-4.25572 1.27406,-6.37714z" fill="#000000"/><path d="M240.41788,130.82404c1.43398,2.12142 0.54267,4.60588 -1.27482,6.37714c-2.03426,1.9812 -5.16219,3.0188 -7.20024,1.43247c-2.24193,-1.74473 -1.48552,-5.53887 0.50023,-7.99227c2.00849,-2.48294 6.17553,-2.47915 7.97483,0.18266z" fill="#ffffff"/><path d="M236.67679,133.98381c0,-1.13772 1.10689,-2.06003 2.47233,-2.06003c1.36544,0 2.47233,0.9223 2.47233,2.06003c0,1.13772 -1.10689,2.06003 -2.47233,2.06003c-1.36544,0 -2.47233,-0.9223 -2.47233,-2.06003z" fill="#000000"/></g><g stroke="none"><path d="M252.87656,128.32973c0.71775,-0.66773 6.08155,-3.07715 6.72881,-2.10019c0.0773,0.11976 0.04472,0.37593 -0.06746,0.46612c-1.00879,0.79506 -3.95406,0.93906 -5.38274,1.54616c-0.36001,0.1531 -0.94285,0.46309 -1.33091,0.4161c-0.04093,-0.0955 -0.03259,-0.25315 0.0523,-0.32818z" fill="#000000"/><path d="M260.27462,135.80812c-3.82446,5.78823 -12.03425,0.0523 -9.28149,-5.72077c0.7655,-1.60376 3.04456,-2.67091 4.72866,-2.59133c3.82218,0.18039 6.78944,4.92648 4.55282,8.3121zM257.98115,130.57999c-1.28316,-1.75307 -3.65014,-1.96984 -5.3259,-0.12733c-2.34804,2.58223 1.63938,7.82477 5.46157,5.0341c1.41503,-1.03305 1.02849,-3.31666 -0.13567,-4.90678z" fill="#000000"/><path d="M257.98115,130.57999c1.16341,1.59012 1.5507,3.87373 0.13567,4.90678c-3.82218,2.79066 -7.80961,-2.45187 -5.46157,-5.0341c1.67576,-1.8425 4.04275,-1.62574 5.3259,0.12733z" fill="#ffffff"/><path d="M256.25082,132.80145c0,-0.84303 0.82017,-1.52645 1.83189,-1.52645c1.01172,0 1.83189,0.68342 1.83189,1.52645c0,0.84303 -0.82017,1.52645 -1.83189,1.52645c-1.01172,0 -1.83189,-0.68342 -1.83189,-1.52645z" fill="#000000"/></g></g></g></svg>