<svg version="1.1" xmlns="http://www.w3.org/2000/svg" xmlns:xlink="http://www.w3.org/1999/xlink" width="46.69673" height="30.93835" viewBox="0,0,46.69673,30.93835"><g transform="translate(-174.18724,-262.9499)"><g data-paper-data="{&quot;isPaintingLayer&quot;:true}" fill-rule="nonzero" stroke="none" stroke-width="1" stroke-linecap="butt" stroke-linejoin="miter" stroke-miterlimit="10" stroke-dasharray="" stroke-dashoffset="0" style="mix-blend-mode: normal"><g><path d="M202.83897,293.57926c-1.00304,-0.94532 1.64776,-4.36764 -2.33857,-6.86703c-0.00768,-0.47283 1.04461,-1.43397 1.04461,-1.43397c0,0 3.41392,1.2416 4.02372,4.4031c0.38138,1.98251 -1.32401,5.22211 -2.72975,3.8979zM201.574,285.94104l-0.48931,0.56747c0.87453,0.51069 1.75638,1.2915 2.2572,2.4402c0.52388,1.20306 -0.25146,3.91099 0.24029,3.95125c1.29537,0.10702 2.79366,-4.74791 -2.00818,-6.95891z" fill="#000000"/><path d="M203.58253,292.89995c-0.49209,-0.04027 0.28359,-2.74819 -0.24029,-3.95125c-0.50082,-1.14869 -1.38268,-1.92951 -2.2572,-2.4402l0.4893,-0.56747c4.80149,2.21101 3.30321,7.06593 2.00819,6.95891z" fill="#ff0000"/></g><g><path d="M207.69076,289.08945c-1.3743,-0.18342 -1.27127,-4.48774 -5.98719,-4.20109c-0.28917,-0.3775 -0.01013,-1.76502 -0.01013,-1.76502c0,0 3.50265,-0.97285 5.88138,1.23163c1.4913,1.38236 2.04416,4.99155 0.11594,4.73449zM202.11148,283.64297l-0.05728,0.74263c1.01212,-0.09326 2.19154,0.02754 3.28155,0.66692c1.14239,0.67001 2.13043,3.3091 2.55232,3.05721c1.11166,-0.66347 -0.57242,-5.45922 -5.7766,-4.46675z" fill="#000000"/><path d="M207.88844,288.10938c-0.42191,0.25225 -1.40993,-2.38685 -2.55232,-3.05721c-1.09036,-0.63938 -2.26977,-0.76018 -3.28155,-0.66692l0.05728,-0.74262c5.20383,-0.99211 6.88792,3.80362 5.7766,4.46675z" fill="#ff0000"/></g><g><path d="M192.36006,293.57718c-1.40643,1.32488 -3.11216,-1.9147 -2.73009,-3.89756c0.60909,-3.16113 4.02336,-4.4024 4.02336,-4.4024c0,0 1.05299,0.9608 1.0453,1.43398c-3.98669,2.49905 -1.33554,5.92206 -2.33858,6.86599zM194.11469,286.50712l-0.48965,-0.56746c-4.8022,2.21135 -3.30356,7.06628 -2.00784,6.95891c0.49175,-0.04027 -0.28359,-2.7475 0.24028,-3.95057c0.50013,-1.14938 1.38198,-1.9302 2.2572,-2.44089z" fill="#000000"/><path d="M193.62505,285.94l0.48965,0.56746c-0.87488,0.51069 -1.75672,1.29151 -2.25685,2.44054c-0.52388,1.20306 0.25146,3.9103 -0.24029,3.95057c-1.29642,0.10772 -2.79505,-4.74757 2.00749,-6.95857z" fill="#ff0000"/></g><g><path d="M193.49548,284.88732c-4.71592,-0.28665 -4.61326,4.01698 -5.98791,4.2011c-1.92821,0.25741 -1.37535,-3.35109 0.1163,-4.73379c2.37875,-2.20481 5.88138,-1.23196 5.88138,-1.23196c0,0 0.27871,1.38682 -0.00977,1.76467zM193.14413,284.38455l-0.05763,-0.74262c-5.20349,-0.99211 -6.88757,3.80328 -5.77556,4.46675c0.42191,0.25189 1.40958,-2.38754 2.55164,-3.05721c1.09001,-0.63973 2.26943,-0.76018 3.28155,-0.66692z" fill="#000000"/><path d="M193.08686,283.64159l0.05762,0.74262c-1.01212,-0.09326 -2.19154,0.02719 -3.28155,0.66692c-1.14205,0.66966 -2.12972,3.3091 -2.55162,3.05721c-1.11237,-0.66313 0.57173,-5.45852 5.77556,-4.46675z" fill="#ff0000"/></g><g><path d="M196.07539,273.26104l-0.55531,0.88784c-1.41761,-0.86066 -2.33963,-2.97771 -2.62427,-4.56689c-0.72329,-0.00894 -1.47593,-0.38783 -2.08502,-1.32455c-1.41307,-2.17282 1.68408,-5.1409 3.68809,-3.39171c1.78398,1.55752 0.907,3.75373 -0.57277,4.47708c0.23015,1.36514 1.03413,3.24098 2.14928,3.91822zM192.99639,268.80977l0.62936,-0.02753c0.35449,-0.09395 0.68734,-0.32313 0.9346,-0.72645c0.20501,-0.3338 0.28778,-0.65488 0.24587,-1.06955c-0.26472,-2.64976 -3.84699,-2.30152 -3.29902,0.34275c0.16798,0.80903 0.80536,1.36618 1.4892,1.48078z" fill="#000000"/><path d="M194.80621,266.9859c0.04191,0.41467 -0.04085,0.73574 -0.24587,1.06954c-0.86125,1.40438 -2.74546,0.75673 -3.05316,-0.72679c-0.54798,-2.64391 3.03464,-2.99218 3.29902,-0.34274z" fill="#ffffff"/><path d="M192.19243,266.05675c0,-0.52037 0.42813,-0.94222 0.95625,-0.94222c0.52812,0 0.95625,0.42185 0.95625,0.94222c0,0.52037 -0.42812,0.94221 -0.95625,0.94221c-0.52812,0 -0.95625,-0.42184 -0.95625,-0.94221z" fill="#000000"/></g><g><path d="M201.08749,269.58337c-0.87453,1.05476 -1.7204,2.7093 -1.56325,3.90961l-1.04985,0.13352c-0.18824,-1.43707 0.63947,-3.19624 1.57546,-4.42684c-0.04156,-0.02959 -0.08382,-0.05815 -0.12468,-0.09153c-3.04617,-2.47702 1.14554,-6.96718 3.56655,-3.51663c1.22308,1.74438 -0.578,4.12744 -2.40423,3.99185zM203.10615,267.06505c0,-0.02994 0.00035,-0.05954 -0.00105,-0.0905c-0.00279,-0.05232 -0.00838,-0.10634 -0.01468,-0.1607c-0.00279,-0.02684 -0.00455,-0.053 -0.00872,-0.08087c-0.01257,-0.08328 -0.02829,-0.16827 -0.04995,-0.25637c-0.36008,-1.47217 -2.26594,-2.05477 -3.07655,-0.62149c-0.19383,0.34068 -0.26472,0.66451 -0.20884,1.07747c0.01223,0.08981 0.02899,0.17551 0.04854,0.25809c0.00594,0.02512 0.01327,0.04886 0.01991,0.0733c0.01537,0.05644 0.03109,0.11184 0.04924,0.16483c0.00908,0.02581 0.01921,0.05093 0.02899,0.07605c0.01886,0.04956 0.03876,0.09738 0.06042,0.14384c0.01117,0.02238 0.02201,0.04474 0.03317,0.06642c0.02444,0.04715 0.04995,0.09257 0.07684,0.13628c0.01048,0.01686 0.02095,0.03406 0.03177,0.05059c0.03318,0.04989 0.06775,0.09704 0.10407,0.14212c0.00629,0.00792 0.01222,0.01652 0.01886,0.02409c0.45578,0.54751 1.14589,0.72335 1.73823,0.5709c0.00874,-0.00206 0.01781,-0.00516 0.02654,-0.00757c0.04645,-0.01308 0.09291,-0.02787 0.1383,-0.04474c0.01292,-0.00482 0.02549,-0.00997 0.03841,-0.01515c0.04085,-0.01686 0.08139,-0.03476 0.1205,-0.05507c0.01432,-0.00688 0.02794,-0.01411 0.04191,-0.02168c0.03737,-0.02031 0.07369,-0.04267 0.10931,-0.06641c0.01362,-0.00929 0.02725,-0.0179 0.04052,-0.02719c0.03598,-0.02547 0.06984,-0.05299 0.10337,-0.08156c0.01152,-0.00963 0.0234,-0.01859 0.03423,-0.02856c0.03841,-0.03442 0.07439,-0.07157 0.10896,-0.11046c0.00489,-0.00551 0.01013,-0.00998 0.01502,-0.01549c0.03947,-0.04577 0.07613,-0.09429 0.11035,-0.14557c0.00489,-0.00722 0.00873,-0.01549 0.01362,-0.02272c0.02724,-0.04336 0.05378,-0.08809 0.07718,-0.13524c0.00908,-0.01858 0.01711,-0.03854 0.0255,-0.05748c0.01711,-0.03786 0.03354,-0.07639 0.04786,-0.11665c0.00839,-0.0234 0.01536,-0.04818 0.0227,-0.07227c0.01152,-0.03888 0.02271,-0.07776 0.03179,-0.11803c0.00594,-0.02684 0.01117,-0.05403 0.01606,-0.08156c0.00733,-0.04095 0.01291,-0.08258 0.01745,-0.1256c0.00279,-0.02891 0.00594,-0.05816 0.00769,-0.08776c0.00279,-0.04474 0.00315,-0.0905 0.00245,-0.13731z" fill="#000000"/><path d="M203.10581,266.97489c0.0014,0.03096 0.00105,0.06056 0.00105,0.0905c0.00035,0.04645 0,0.09223 -0.00279,0.13697c-0.0014,0.02959 -0.00454,0.05885 -0.00769,0.08776c-0.00454,0.04267 -0.01012,0.08465 -0.01745,0.1256c-0.00489,0.02753 -0.01013,0.05472 -0.01608,0.08156c-0.00943,0.04027 -0.02025,0.07949 -0.03178,0.11803c-0.00733,0.02409 -0.01432,0.04887 -0.02271,0.07227c-0.01432,0.04027 -0.03073,0.0788 -0.04785,0.11665c-0.00839,0.01927 -0.01642,0.03888 -0.0255,0.05748c-0.02375,0.04715 -0.04994,0.09188 -0.07718,0.13524c-0.00489,0.00722 -0.00873,0.01549 -0.01362,0.02272c-0.03388,0.05127 -0.0709,0.09979 -0.11037,0.14557c-0.00489,0.00551 -0.00978,0.00998 -0.01502,0.01549c-0.03457,0.03888 -0.0709,0.0757 -0.10896,0.11046c-0.01117,0.00997 -0.02305,0.01893 -0.03423,0.02856c-0.03352,0.02856 -0.06741,0.05609 -0.10338,0.08156c-0.01327,0.00963 -0.02689,0.01825 -0.04051,0.02719c-0.03528,0.0234 -0.07194,0.04576 -0.10931,0.06641c-0.01397,0.00722 -0.02795,0.01445 -0.04192,0.02168c-0.03947,0.01997 -0.07963,0.0382 -0.12049,0.05507c-0.01292,0.00482 -0.0255,0.01033 -0.03842,0.01515c-0.04505,0.01686 -0.0915,0.03166 -0.1383,0.04474c-0.00874,0.00206 -0.01781,0.00516 -0.02655,0.00757c-0.59267,0.1528 -1.28244,-0.0234 -1.73822,-0.5709c-0.00663,-0.00792 -0.01256,-0.01617 -0.01886,-0.02409c-0.03633,-0.04507 -0.0709,-0.09222 -0.10407,-0.14212c-0.01083,-0.01617 -0.0213,-0.03338 -0.03178,-0.05059c-0.02689,-0.04336 -0.05275,-0.08879 -0.07684,-0.13628c-0.01152,-0.02168 -0.0227,-0.04404 -0.03317,-0.06642c-0.02166,-0.04645 -0.04156,-0.09429 -0.06042,-0.14384c-0.00978,-0.02512 -0.0199,-0.04991 -0.02899,-0.07605c-0.01816,-0.053 -0.03387,-0.10839 -0.04924,-0.16483c-0.00663,-0.02443 -0.01397,-0.04783 -0.01991,-0.0733c-0.01955,-0.08258 -0.03631,-0.16828 -0.04854,-0.25809c-0.05588,-0.41295 0.01502,-0.73678 0.20884,-1.07747c0.81097,-1.43328 2.71683,-0.85068 3.07656,0.62149c0.02166,0.0881 0.0377,0.17343 0.04993,0.25637c0.00385,0.02753 0.0056,0.05368 0.00874,0.08087c0.00629,0.05471 0.01188,0.10874 0.01502,0.16105z" fill="#ffffff"/><path d="M200.45744,265.88815c0,-0.52018 0.42797,-0.94188 0.95589,-0.94188c0.52793,0 0.95591,0.4217 0.95591,0.94188c0,0.52018 -0.42798,0.94187 -0.95591,0.94187c-0.52793,0 -0.95589,-0.42169 -0.95589,-0.94187z" fill="#000000"/></g><g><path d="M214.1945,276.32686c-0.76381,0.17963 -1.70364,0.1029 -2.48282,0.04543c-2.21529,4.23274 -5.85903,3.41509 -7.48165,2.65354c0.15751,-0.30937 0.329,-0.61219 0.49943,-0.91503c2.97421,0.47214 4.75469,-1.24746 4.71209,-2.10537c-0.00839,-0.15898 -0.09256,-0.3665 -0.2099,-0.47076c-1.52412,-1.60467 -1.95091,-3.96949 -0.89513,-5.8436c0.58115,-1.03134 3.66957,-2.70653 4.29264,-1.84519c0.00174,0.00241 0.00385,0.00309 0.00559,0.0055c-0.37894,0.76981 0.23959,1.90403 0.23296,2.39511c-0.01676,1.26466 -1.46197,1.0341 -1.17594,2.64427c0.03737,0.21096 -0.05518,0.46148 0.16834,0.60463c0.33668,-0.12698 0.07719,-0.68206 0.23714,-1.04373c0.44215,-0.99865 1.39805,-0.72818 1.64322,-1.75367c0.23574,-0.98868 -0.90071,-2.32112 0.12784,-3.01523c0.33807,-0.2285 0.69326,-0.25466 0.88778,-0.66554c0.43097,-0.91194 -0.38977,-1.82213 0.67091,-2.56339c0.79699,-0.55714 1.60622,-0.31866 2.40111,0.16174c3.87983,2.34488 1.67919,10.46246 -3.63361,11.71129z" fill="#ff0000"/><path d="M220.71222,270.91168c-0.63424,3.04345 -3.19214,6.98987 -8.6663,6.46301c-1.4665,3.69488 -6.18313,3.46191 -8.05057,2.1212c0.01187,-0.01824 0.02724,-0.032 0.03598,-0.05333c0.01921,-0.04611 0.04331,-0.08948 0.06427,-0.13422l-0.09989,0.18755l-0.27032,-0.26463l0.74216,-1.49281h0.46415c2.47025,0.02856 3.20612,-0.967 3.71882,-1.77947c-0.01641,-0.01411 -0.03248,-0.02926 -0.0468,-0.04715c-0.26892,-0.33931 -1.04182,-1.40644 -1.39421,-2.3397c-0.57102,-1.51588 0.04366,-3.82186 1.17034,-4.93339c1.74626,-1.72442 4.41592,-2.18589 5.06378,-1.43397c1.35859,-0.69479 0.24762,-1.98595 0.74251,-3.02314c0.39989,-0.83967 1.39769,-1.34691 2.13182,-1.20651c3.83267,0.73264 5.05959,4.74309 4.39427,7.93658zM217.82811,264.61591c-0.79489,-0.48039 -1.60413,-0.71888 -2.40111,-0.16173c-1.06068,0.74126 -0.23993,1.65145 -0.67091,2.56339c-0.19454,0.41088 -0.54972,0.43704 -0.88778,0.66554c-1.02855,0.6941 0.10791,2.02656 -0.12784,3.01523c-0.24518,1.0255 -1.20108,0.75501 -1.64322,1.75366c-0.15995,0.36167 0.09954,0.91675 -0.23714,1.04373c-0.22316,-0.14315 -0.13097,-0.39367 -0.16834,-0.60463c-0.28638,-1.61016 1.15917,-1.3796 1.17594,-2.64427c0.00663,-0.49108 -0.61189,-1.62495 -0.23296,-2.39511c-0.00174,-0.00241 -0.00385,-0.0031 -0.00559,-0.00551c-0.62306,-0.86135 -3.71148,0.81386 -4.29264,1.8452c-1.05613,1.87412 -0.629,4.23895 0.89513,5.8436c0.11735,0.10426 0.20188,0.31179 0.2099,0.47077c0.04261,0.85755 -1.73647,2.57611 -4.70895,2.1057l-0.48965,0.9202c1.62856,0.76018 5.25937,1.56336 7.46907,-2.65906c0.77918,0.05748 1.71867,0.13421 2.48282,-0.04542c5.31246,-1.24918 7.51309,-9.36676 3.63326,-11.71129z" fill="#000000"/></g><g><path d="M190.74408,279.06919c-1.66592,0.74642 -5.21221,1.45324 -7.38526,-2.69795c-0.77918,0.05748 -1.71867,0.13386 -2.48282,-0.04576c-5.31175,-1.24883 -7.51308,-9.36675 -3.63325,-11.71094c0.79489,-0.48039 1.60341,-0.71922 2.40109,-0.16174c1.06068,0.7409 0.23924,1.65112 0.67056,2.56305c0.19454,0.41123 0.55007,0.43773 0.88814,0.66554c1.02855,0.69479 -0.10827,2.02689 0.12783,3.01557c0.24482,1.02585 1.20108,0.75536 1.64288,1.75401c0.1603,0.36167 -0.0992,0.91674 0.23678,1.04338c0.22352,-0.14282 0.13166,-0.39332 0.16904,-0.60428c0.28603,-1.61016 -1.15916,-1.3796 -1.17627,-2.64427c-0.00663,-0.50483 0.64715,-1.68828 0.19942,-2.45878c0.77847,-0.63664 3.65421,0.88578 4.22769,1.8631c1.08897,1.85622 0.78686,4.18698 -0.71038,5.81779c-0.00594,0.00722 -0.00944,0.01376 -0.01502,0.02099c-0.15052,0.07329 -0.26542,0.32899 -0.27451,0.51619c-0.04261,0.8469 1.69281,2.53001 4.59753,2.11982c0.13864,0.33071 0.31328,0.64488 0.51654,0.94428z" fill="#ff0000"/><path d="M191.4576,279.2096l-0.3971,0.2925c-1.87512,1.33245 -6.5715,1.55786 -8.03556,-2.12876c-5.4738,0.52616 -8.03206,-3.41992 -8.66595,-6.46371c-0.66532,-3.19315 0.56159,-7.20359 4.39462,-7.93658c0.73378,-0.14006 1.73158,0.36684 2.13252,1.20651c0.48685,1.02103 -0.58464,2.28844 0.67579,2.99079c0.75544,-0.64765 3.29763,-0.20131 5.00686,1.42812c1.14588,1.09226 1.80213,3.38689 1.25731,4.9124c-0.33494,0.93912 -1.08897,2.01934 -1.3523,2.36346c-0.01851,0.0234 -0.04016,0.04543 -0.06391,0.06642c0.50955,0.80973 1.23355,1.80906 3.67621,1.796l0.36741,-0.09705zM190.74443,279.06953l-0.58954,-0.93499l-0.00034,-0.00207c-2.85966,0.37097 -4.56645,-1.28806 -4.5242,-2.12738c0.00908,-0.18755 0.12399,-0.44323 0.27452,-0.51619c0.00558,-0.00722 0.00908,-0.01376 0.01502,-0.02099c1.49723,-1.63081 1.79933,-3.96158 0.71036,-5.81779c-0.57348,-0.97767 -3.4492,-2.50007 -4.22768,-1.8631c0.44774,0.7705 -0.20606,1.95395 -0.19943,2.45878c0.01711,1.26466 1.46232,1.0341 1.17628,2.64427c-0.03737,0.21096 0.05448,0.46146 -0.16905,0.60428c-0.33598,-0.12664 -0.07648,-0.68171 -0.23678,-1.04338c-0.4418,-0.99865 -1.39805,-0.72817 -1.64288,-1.75401c-0.2361,-0.98868 0.90071,-2.32078 -0.12784,-3.01557c-0.33807,-0.2278 -0.69361,-0.2543 -0.88814,-0.66554c-0.43132,-0.91194 0.39012,-1.82215 -0.67055,-2.56305c-0.7977,-0.55748 -1.60621,-0.31866 -2.4011,0.16174c-3.88017,2.34419 -1.67885,10.46211 3.6329,11.71059c0.76415,0.17963 1.70364,0.10324 2.48282,0.04577c2.17303,4.15118 5.71968,3.4447 7.3856,2.69863z" fill="#000000"/></g><g><path d="M197.60161,273.62719c2.72834,-0.01274 6.25614,1.00656 6.64554,2.49009c0.33668,1.27808 -0.26926,2.42024 -0.98279,3.43196c-1.2154,1.72408 -1.56465,4.09303 -2.50903,5.81435c-0.63843,1.16486 -1.93694,1.70342 -3.15373,1.6556c-1.21644,0.04818 -2.51566,-0.49073 -3.15373,-1.6556c-0.94367,-1.72201 -1.45637,-4.09096 -2.67176,-5.81435c-0.71318,-1.01139 -1.31948,-2.15389 -0.9835,-3.43196c0.39011,-1.48318 4.08029,-2.50247 6.80899,-2.49009z" fill="#ff0000"/><path d="M204.48464,279.30732c-1.50736,1.89029 -2.33474,6.68534 -3.03254,7.5102c-0.87732,1.03651 -2.34871,1.1425 -3.83408,1.14388c-1.51959,-0.00137 -2.99063,-0.10737 -3.8676,-1.14388c-0.69815,-0.82486 -1.52516,-5.61991 -3.03253,-7.5102c-1.36417,-1.71064 -1.54788,-3.93061 0,-4.98672c1.57861,-1.07711 4.22069,-1.46701 6.86556,-1.46701h0.03563c2.64488,0 5.28696,0.38954 6.86522,1.46701c1.54823,1.05647 1.36417,3.27642 0.00035,4.98672zM204.24716,276.11761c-0.38941,-1.48352 -3.9172,-2.50282 -6.64554,-2.49009c-2.72869,-0.01274 -6.41888,1.00656 -6.80899,2.49009c-0.33598,1.27808 0.27032,2.42058 0.9835,3.43197c1.2154,1.72339 1.72809,4.09234 2.67176,5.81435c0.63807,1.16486 1.93728,1.70378 3.15373,1.65559c1.21679,0.04784 2.5153,-0.49073 3.15373,-1.65559c0.94438,-1.72132 1.29363,-4.09028 2.50903,-5.81435c0.71353,-1.01207 1.31947,-2.15389 0.98279,-3.43197z" fill="#272525"/></g></g></g></svg>