<svg version="1.1" xmlns="http://www.w3.org/2000/svg" xmlns:xlink="http://www.w3.org/1999/xlink" width="545.49534" height="286.4493" viewBox="0,0,545.49534,286.4493"><g transform="translate(35.32774,-120.27607)"><g data-paper-data="{&quot;isPaintingLayer&quot;:true}" fill-rule="nonzero" stroke-linecap="butt" stroke-linejoin="miter" stroke-miterlimit="10" stroke-dasharray="" stroke-dashoffset="0" style="mix-blend-mode: normal"><path d="M-1.03925,327.78583c1.64429,-0.49086 3.35286,-0.84817 4.827,-1.69956c0.94047,-0.54317 1.4805,-1.63699 2.42044,-2.18108c3.34645,-1.93714 7.76299,-2.82504 11.39593,-4.18739c1.42627,-0.53485 6.64726,-2.79614 8.45905,-3.12172c1.97105,-0.3542 4.0345,0.33975 6.00787,-0.00129c2.78001,-0.48044 5.57929,-1.01542 8.40046,-1.03228c4.72007,0 10.73025,-0.9032 15.40045,0.03228c3.10068,0.6211 5.88151,2.47559 9,3c1.31487,0.22111 2.6807,-0.19295 4,0c11.19286,1.63698 21.5406,7.39551 32.02483,10.95042c6.17927,2.09521 12.60338,1.59727 18.83909,3.65332c4.72763,0.46522 7.79446,1.70632 12.24539,3.37623c0.01914,0.00718 6.57781,2.2366 6.58862,2.24196c1.03061,0.51198 1.78137,1.53058 2.85833,1.93609c1.47849,0.55669 3.1393,0.44594 4.65462,0.89276c1.53337,0.45213 2.88481,1.4602 4.44875,1.7915c5.80749,1.23024 12.95721,0.12544 18.93992,0.12544c2.75875,0 5.63012,0.88983 8.27554,0.10727c1.02734,-0.3039 6.67881,-1.18481 7.62196,-1.65553c4.3522,-2.17216 5.31134,-3.40474 9.98982,-4.88495c2.15191,-2.21292 4.15549,-4.2547 7.1013,-5.55884c2.94557,-2.24522 12.73542,-8.25596 14,-8.79423c2.49085,-1.06025 4.56887,-2.95137 7.05468,-4.02341c3.65445,-1.57604 7.3753,-3.63698 11.08934,-5.03501c2.78945,-1.05 5.76992,-1.5847 8.49313,-2.7962c1.54839,-0.68885 2.96473,-1.68521 4.57069,-2.22643c10.34107,-3.48499 21.51109,-3.92368 32.11906,-6.04528c5.22971,-1.03467 9.93265,-0.57986 15.15897,-1.07624c4.63328,-0.44005 8.8182,-1.06885 13.52552,-1.01114c1.57511,0.0193 3.21098,-0.32942 4.72446,0.10727c3.43946,0.99241 5.72695,4.56705 8.58987,6.2661c0.90648,0.53796 2.10249,0.4472 3,1c1.11942,0.68947 3.13781,3.27197 4.27064,4.19327c1.546,1.25733 3.53981,1.83939 5.37174,2.62365c7.4228,3.17775 15.16236,5.82808 23.34875,5.82843c6.99181,1.74795 14.50198,0.98127 21.69454,0.98127c7.29086,0 15.49354,1.07423 22.69454,0.01873c4.77805,-0.70036 9.2242,-2.30154 14,-3c6.02087,-0.88056 11.95786,-1.07881 17.90965,-2.9872c2.02602,0.0005 3.99518,-0.67665 5.99535,-0.99925c2.43537,-0.39279 4.93385,-0.06653 7.40046,-0.03228c1.24188,0.01725 2.54799,-0.29083 3.72446,0.10727c4.86411,1.64594 5.75321,5.23003 8.30364,8.93095c1.61021,2.33657 3.37467,3.07607 5.92861,4.15207c1.18478,0.49917 5.33225,1.70309 6.34875,1.82843c3.96409,0.48882 7.25712,-0.82544 11.00887,1.35465c1.63035,0.94738 2.3698,3.05237 4,4c0.86124,0.50063 1.98136,0.41731 2.84593,0.91217c1.41918,0.8123 2.45508,2.21889 3.91417,2.95711c2.43027,1.22958 5.24117,1.52228 7.75987,2.55872c1.20981,3.8721 1.78488,5.36684 2.60479,9.15015c0.3189,1.47153 0.21289,3.06623 0.82802,4.44054c0.65868,1.47162 2.10506,2.4695 2.89418,3.8755c1.99991,3.56331 3.19315,9.30009 2.14842,13.18914c-0.27787,1.03437 -1.63602,1.43683 -2.18308,2.35762c-0.53841,0.90622 -0.44721,2.10249 -1,3c-2.56378,4.16255 -7.01261,5.96206 -11.08198,7.95695c-1.47964,0.72535 -2.76,1.816 -4.23625,2.54822c-2.48834,1.23422 -5.34008,1.55041 -7.94102,2.52522c-4.52943,1.69758 -8.74372,4.30442 -13.41113,5.75685c-3.19338,0.99373 -6.4822,1.69648 -9.6143,2.86915c-0.2612,0.05274 -9.8956,2.00326 -10.17565,2.03898c-4.49615,0.57351 -9.01288,0.207 -13.51095,0.48547c-5.96772,0.36946 -11.9408,1.18507 -17.88756,1.70246c-6.37048,0.55426 -12.88223,0.30237 -19.26779,0.30237c-12.66667,0 -25.33333,0 -38,0c-32.66667,0 -65.33333,0 -98,0c-19.31261,0 -38.60336,0.03569 -57.87546,0.99689c-6.64948,0.33164 -13.24958,1.6547 -19.89938,1.99c-7.698,0.38815 -15.51631,0.0131 -23.22515,0.0131c-30,0 -60,0 -90,0c-17,0 -34,0 -51,0c-9.49525,0 -19.07158,0.35059 -28.40045,-1.03228c-5.08009,-0.75305 -10.02815,-3.75245 -14.18451,-6.53436c-4.66585,-4.62907 -9.07286,-8.75464 -11.71466,-14.95269c-3.30429,-7.75236 -3.35729,-18.15848 -0.01187,-25.93302c1.66356,-3.866 4.3305,-5.58633 6.06571,-9.14603c3.33118,-6.83375 7.19959,-13.46163 11.59129,-19.77581c2.87922,-1.48589 5.90756,-2.75467 9.04817,-3.55116l2.60634,-0.07464c0,0 2.31196,0 2.48926,2.22332zM-5.61929,330.66585c-2.14554,0.56831 -4.25283,1.31785 -6.25471,2.27085c-0.35401,0.56498 -0.70587,1.13067 -1.05549,1.69716c0.35317,-0.24049 0.71555,-0.47308 1.08665,-0.69798c1.81873,-1.10219 4.0778,-1.46698 5.72936,-2.80673c0.17496,-0.14193 0.33766,-0.29892 0.49419,-0.4633z" fill="#a5005d" stroke="#000000" stroke-width="0"/><path d="M332.90844,177.14885c-2.5,0 -2.5,-2.5 -2.5,-2.5l0.03402,-0.11243c-0.57398,-3.66704 -2.5066,-6.11021 -3.59715,-9.65318c-0.96339,-3.12987 -1.59435,-7.7692 -1.12355,-10.99482c0.6074,-4.16153 3.27618,-6.71886 4.23181,-10.70321c1.54127,-6.42608 -1.87196,-13.71286 -4.97343,-19.11536c0,0 -1.24035,-2.17061 0.93026,-3.41096c2.17061,-1.24035 3.41096,0.93026 3.41096,0.93026c3.78499,6.65178 7.30614,14.94668 5.49512,22.75887c-0.87203,3.76167 -3.61966,6.45615 -4.14304,10.2339c-0.96873,6.99232 3.56389,12.624 4.701,19.13251l0.03402,0.93443c0,0 0,2.5 -2.5,2.5z" fill="#742e2e" stroke="none" stroke-width="0.5"/></g></g></svg>