<svg version="1.1" xmlns="http://www.w3.org/2000/svg" xmlns:xlink="http://www.w3.org/1999/xlink" width="45.97723" height="31.1277" viewBox="0,0,45.97723,31.1277"><g transform="translate(-202.78064,-210.658)"><g data-paper-data="{&quot;isPaintingLayer&quot;:true}" fill-rule="nonzero" stroke="none" stroke-width="0.66342" stroke-linecap="butt" stroke-linejoin="miter" stroke-miterlimit="10" stroke-dasharray="" stroke-dashoffset="0" style="mix-blend-mode: normal"><g><g><path d="M234.5328,240.7905c-0.3158,0 -0.6243,-0.0086 -0.9261,-0.0245c-2.1754,-0.1201 -4.3229,-0.9135 -6.3994,-1.6804c-2.2928,-0.8479 -4.6638,-1.7243 -7.1092,-1.7243c-0.1115,0 -0.2236,0.0014 -0.3357,0.0053c-1.3554,0.0445 -2.8792,0.345 -4.3534,0.6349c-1.6618,0.3278 -3.3808,0.6668 -4.9624,0.6668c-2.6782,0 -4.5371,-0.9998 -5.6835,-3.0551c-2.2244,-3.9891 -0.4219,-5.6258 2.8507,-8.5986c1.0051,-0.9128 2.1442,-1.9478 3.4505,-3.276c0.2932,-0.2978 0.7185,-1.1556 1.1696,-2.0645c1.7368,-3.5015 4.9697,-10.0203 13.0588,-10.0203c6.2255,0 11.3471,5.2125 14.7365,8.6623c0.7776,0.7908 1.4496,1.4747 2.0002,1.9564c3.071,2.6868 7.4104,10.5955 5.0493,13.9292c-2.0334,2.8719 -7.9763,4.5888 -12.5459,4.5888v0z" fill="#5f8ba5"/><path d="M225.292,212.6482c-9.7092,0 -11.7624,10.0031 -13.5185,11.7877c-5.6417,5.7373 -8.5469,6.3801 -6.142,10.6924c1.092,1.9584 2.8136,2.5448 4.8145,2.5448c2.866,0 6.3045,-1.2034 9.2832,-1.3009c0.1228,-0.004 0.2455,-0.006 0.3682,-0.006c4.9047,0 9.209,3.1672 13.5637,3.406c0.2832,0.0153 0.5745,0.0232 0.871,0.0232c4.3693,0 9.9586,-1.6619 11.7339,-4.1696c1.8968,-2.6782 -1.9113,-9.9964 -4.8927,-12.605c-2.9814,-2.6085 -8.8732,-10.3726 -16.0813,-10.3726M225.292,212.6482v-1.9902v0c6.6435,0 11.9409,5.3916 15.4464,8.9595c0.7636,0.7775 1.4231,1.4482 1.9452,1.9053c3.0192,2.6411 8.1176,11.1435 5.2065,15.2527c-2.3027,3.2548 -8.6012,5.0102 -13.358,5.0102c-0.3337,0 -0.6634,-0.0093 -0.9805,-0.0266c-2.3246,-0.1273 -4.5438,-0.9473 -6.6899,-1.7408c-2.3127,-0.8545 -4.4967,-1.6618 -6.7643,-1.6618c-0.1008,0 -0.2017,0.0013 -0.3032,0.0046c-1.2751,0.0425 -2.6921,0.3218 -4.1934,0.617c-1.709,0.337 -3.4764,0.6853 -5.1548,0.6853c-3.0285,0 -5.2331,-1.2001 -6.5526,-3.5659c-2.6093,-4.6791 -0.2349,-6.8352 3.0511,-9.8199c0.9957,-0.9043 2.1236,-1.9286 3.4066,-3.2336c0.2017,-0.2215 0.6396,-1.1039 0.9912,-1.8124c1.8323,-3.6959 5.2436,-10.5736 13.9497,-10.5736z" fill="#000000"/></g><path d="M220.7774,224.6946c1.5697,0.4459 3.0259,0.9759 4.3123,2.0049c0.6554,0.5248 -0.2953,1.5113 -0.9341,0.9341c-2.3751,-2.1409 -7.0283,-1.6586 -8.6869,-4.5471c-0.0544,-0.0969 0.0365,-0.2335 0.1493,-0.1944c1.7349,0.5938 3.3868,1.2983 5.1594,1.8025z" fill="#231f20"/><path d="M222.1852,227.2952c0.469,0.2866 0.0425,1.0224 -0.4312,0.7384c-2.2185,-1.3315 -6.7583,-0.7191 -7.6008,-3.7781c-0.0703,-0.2515 0.2879,-0.5016 0.4677,-0.272c1.0741,1.3646 2.1369,1.9537 3.8432,2.2894c1.2578,0.2461 2.6013,0.3397 3.7211,1.0223z" fill="#231f20"/></g></g></g></svg>