<svg version="1.1" xmlns="http://www.w3.org/2000/svg" xmlns:xlink="http://www.w3.org/1999/xlink" width="89.00427" height="96.30711" viewBox="0,0,89.00427,96.30711"><g transform="translate(-204.49787,-121.84644)"><g data-paper-data="{&quot;isPaintingLayer&quot;:true}" fill-rule="nonzero" stroke-miterlimit="10" stroke-dasharray="" stroke-dashoffset="0" style="mix-blend-mode: normal"><g stroke="#8e5322" stroke-width="1.4" stroke-linecap="round" stroke-linejoin="round"><g><path d="M226.00213,184.34644c-2.6,-6.6 -3.4,-4.1 -2.4,-6.8c3.6,-3.6 12.5,-3.5 18.2,-1.3l2.8,7.5" fill="#faa51f"/><path d="M231.40213,182.04644" fill="#faa51f"/><path d="M234.60213,183.74644" fill="none"/><path d="M230.70213,182.44644l5.6,-0.1" fill="#faa51f"/><path d="M229.50213,180.94644l0.4,1.8" fill="none"/></g><path d="M229.80213,183.14644c1.3,5.7 -2.1,8.4 -3.8,8.2c-4,-0.6 -5.3,-5.3 -2.6,-13.6" fill="#faa51f"/></g><g><path d="M236.00213,194.84644c0.8,0.7 2.3,1.8 -0.6,4.9c-2.8,3.1 -9.9,2.7 -10.7,2.6c-3.1,-0.4 -6.9,-1 -10.9,-3.1c-11.5,-6 -9.5,-19.4 -5.3,-20.9c4.2,-1.5 4.6,6.9 9.3,12.8c2.1,2.7 4.8,4 7.2,4.8c3.3,1.3 10.3,-1.7 11,-1.1z" fill="#faa51f" stroke="none" stroke-width="1" stroke-linecap="butt" stroke-linejoin="miter"/><path d="M213.00213,182.34644c1.3,2.7 3.8,7.5 3.8,7.5c0,0 -4,-1.3 -6.4,0.2c-2.4,1.5 -0.8,5.9 -2.2,4.6c-1,-1.5 -2.6,-4 -3.1,-7.7c-0.4,-3.7 1.5,-8.3 3.6,-8.7c2.2,-0.2 3.2,1.6 4.3,4.1z" fill="#ffffff" stroke="none" stroke-width="1" stroke-linecap="butt" stroke-linejoin="miter"/><path d="M236.00213,194.84644c0.8,0.7 2.3,1.8 -0.6,4.9c-2.8,3.1 -9.9,2.7 -10.7,2.6c-3.1,-0.4 -6.9,-1 -10.9,-3.1c-11.5,-6 -9.5,-19.4 -5.3,-20.9c4.2,-1.5 4.6,6.9 9.3,12.8c2.1,2.7 4.8,4 7.2,4.8c3.3,1.3 10.3,-1.7 11,-1.1z" fill="none" stroke="#8e5322" stroke-width="1.4" stroke-linecap="round" stroke-linejoin="round"/></g><g fill="#faa51f" stroke="#8e5322" stroke-width="1.4" stroke-linecap="round" stroke-linejoin="round"><path d="M247.00213,195.84644c0,0 -2.4,4.5 -2.4,13.4c0,3.8 7.4,-0.8 6.3,6.5c-0.4,2.1 -9.5,2 -11.6,1.1c-1.8,-0.9 -2.3,-1.6 -1.8,-3.6c1.8,-7.2 -3,-19.4 -3,-19.4"/><path d="M243.50213,210.34644c1.6,0.2 2.6,0.5 2.6,0.5"/></g><path d="M239.10213,192.44644" fill="#faa51f" stroke="#8e5322" stroke-width="1.4" stroke-linecap="round" stroke-linejoin="round"/><path d="M251.20213,186.74644c-1.9,6.4 -3,16.3 -14.4,13c-11.4,-3.3 -7.8,-11.7 -5.9,-18.1c1.9,-6.4 6.3,-7 12.8,-5.1c6.3,1.9 9.4,3.8 7.5,10.2z" fill="#faa51f" stroke="#8e5322" stroke-width="1.4" stroke-linecap="round" stroke-linejoin="round"/><path d="M248.90213,188.84644c-1.2,4 -2.1,10.3 -8.2,8.5c-6.1,-1.8 -4.1,-7.1 -2.9,-11.2c1.2,-4 3.6,-4.6 7.2,-3.5c3.5,1.1 5,2.2 3.9,6.2z" fill="#ffffff" stroke="none" stroke-width="1" stroke-linecap="butt" stroke-linejoin="miter"/><g fill="#faa51f" stroke="#8e5322" stroke-width="1.4" stroke-linecap="round" stroke-linejoin="round"><path d="M238.50213,199.74644c0.5,11.1 -4,10.8 -6.5,9.2c-8.3,-6 -7.2,3.3 -12,-3.2c-1.3,-2.1 2.3,-5.2 4,-6.6c2.9,-2.4 3.4,-1.1 5,1.5c0.4,-1.3 0.2,-7 0.2,-7"/><path d="M226.40213,205.54644c1.2,0.8 3,1.6 3.8,2.4"/><path d="M230.40213,203.14644c-0.4,-0.4 -0.8,-2.8 -1.2,-4"/></g><g><g><path d="M259.70213,131.64644l8,-6.1l1.4,11.5c0,0 5.6,5.3 7.1,8.7c2.4,5.6 2,9.9 2,9.9c0,0 6.5,2.9 7.1,8.5c0.6,5.6 -5,15.4 -23.5,16.8c-18.5,1.4 -32.4,-5.3 -37.9,-17.2c-5.4,-11.7 6.9,-23.5 6.2,-22.8l0.1,-18.4l11.5,9.7c0,0 4.5,-1.2 9.1,-0.8c1.7,0.1 4.7,0.7 6.2,1z" fill="#faa51f" stroke="none" stroke-width="1" stroke-linecap="butt" stroke-linejoin="miter"/><path d="M277.70213,156.04644c0,0 6.4,2.4 6.9,8c0.8,5.6 -5.4,15.3 -22.8,16.3c-4,0.2 -7.5,0.5 -13,-0.2c-8.5,-1 -17,-7.4 -15,-18.3c1.2,-6.3 9.2,-4.8 9.2,-4.8l7.3,-0.9c0,0 6.9,2.5 11.1,2.1c4.3,-0.4 4.7,-3.7 4.7,-3.7l9.1,-1.5l2.1,2.3z" fill="#ffffff" stroke="none" stroke-width="1" stroke-linecap="butt" stroke-linejoin="miter"/><path d="M292.80213,157.94644c0,0 -1.9,1.5 -4.5,2.3c-2.3,0.6 -6.7,1.1 -6.7,1.1" fill="none" stroke="#8e5322" stroke-width="1.4" stroke-linecap="round" stroke-linejoin="round"/><path d="M291.30213,168.74644c0,0 -1.8,0.2 -4.5,-0.2c-2.8,-0.2 -5.4,-1.4 -5.4,-1.4" fill="none" stroke="#8e5322" stroke-width="1.4" stroke-linecap="round" stroke-linejoin="round"/><path d="M244.30213,134.64644l-4.7,-4.2" fill="none" stroke="#8e5322" stroke-width="1.4" stroke-linecap="round" stroke-linejoin="round"/><path d="M259.70213,131.64644l8,-6.1l1.4,11.5c0,0 5.6,5.3 7.1,8.7c2.4,5.6 2,9.9 2,9.9c0,0 6.5,2.9 7.1,8.5c0.6,5.6 -5,15.4 -23.5,16.8c-18.5,1.4 -32.4,-5.3 -37.9,-17.2c-5.4,-11.7 6.9,-23.5 6.2,-22.8l0.1,-18.4l11.5,9.7c0,0 4.5,-1.2 9.1,-0.8c1.7,0.1 4.7,0.7 6.2,1z" fill="none" stroke="#8e5322" stroke-width="1.4" stroke-linecap="round" stroke-linejoin="round"/><path d="M223.70213,159.34644c0,0 -3.5,-0.2 -5.3,-0.4c-1.7,-0.2 -5.6,-1.3 -5.6,-1.3" fill="none" stroke="#8e5322" stroke-width="1.4" stroke-linecap="round" stroke-linejoin="round"/><path d="M213.90213,147.54644c0,0 2.1,0.9 5.6,3.5c3.1,2.3 5,4.5 5,4.5" fill="none" stroke="#8e5322" stroke-width="1.4" stroke-linecap="round" stroke-linejoin="round"/></g><g><path d="M274.00213,145.54644c2.3,4.6 1.7,9.6 -1.1,10.9c-2.9,1.5 -7.1,-1.2 -9.4,-5.9c-2.3,-4.6 -1.7,-9.6 1.1,-10.9c2.9,-1.4 7.1,1.2 9.4,5.9z" fill="#ffffff" stroke="#8e5322" stroke-width="1.4" stroke-linecap="round" stroke-linejoin="round"/><path d="M273.40213,149.04644c0.2,1 -0.4,2 -1.5,2.1c-0.9,0.2 -1.8,-0.5 -2,-1.7c-0.2,-1 0.4,-2 1.5,-2.1c1,0 1.9,0.7 2,1.7" fill="#414142" stroke="none" stroke-width="1" stroke-linecap="butt" stroke-linejoin="miter"/></g><g><path d="M250.60213,145.74644c2.3,4.6 1.3,9.7 -2.1,11.4c-3.4,1.7 -8.1,-0.7 -10.3,-5.4c-2.3,-4.6 -1.3,-9.7 2.1,-11.4c3.4,-1.6 8,0.8 10.3,5.4z" fill="#ffffff" stroke="#8e5322" stroke-width="1.4" stroke-linecap="round" stroke-linejoin="round"/><path d="M249.80213,149.54644c-0.1,1 -1,1.8 -1.9,1.7c-1,-0.1 -1.6,-1 -1.5,-2.1c0.1,-1 1,-1.8 1.9,-1.7c0.9,0.1 1.6,1 1.5,2.1" fill="#414142" stroke="none" stroke-width="1" stroke-linecap="butt" stroke-linejoin="miter"/></g><path d="M260.30213,156.94644c1.7,0 4.2,-1 4.2,0.9c-0.1,0.8 -2.1,3.9 -3.9,3.8c-2,-0.1 -5.2,-3.1 -4.9,-4.5c0.3,-1.6 3.1,-0.2 4.6,-0.2z" fill="#5f4b43" stroke="#8e5322" stroke-width="1.4" stroke-linecap="round" stroke-linejoin="round"/><path d="M257.10213,173.24644c-5.5,0.4 -7.7,-2.2 -7.7,-2.2" fill="#ffffff" stroke="#8e5322" stroke-width="1.4" stroke-linecap="round" stroke-linejoin="round"/></g><g stroke="#8e5322" stroke-width="1.4" stroke-linecap="round" stroke-linejoin="round"><g><path d="M245.40213,180.94644c-0.2,0.2 10.1,11 9.9,11c-2,0.4 -4.4,1.8 -5.3,1.5c-4,-1.1 -8.8,-4.7 -11.5,-9.3l-0.4,-1.2" fill="#faa51f"/><path d="M250.30213,186.14644" fill="#faa51f"/><path d="M248.90213,182.84644" fill="none"/></g><path d="M247.40213,183.64644c0.7,0.8 2.3,2.8 3.3,2.7c0.8,-0.1 1.8,-0.6 2.5,-1.2c4,-3.5 7.8,-1.8 8.4,-0.3c1.5,3.7 -2.7,6.8 -11.1,8.6" fill="#faa51f"/></g></g></g></svg>